<svg width="34" height="137" viewBox="0 0 34 137" fill="none" xmlns="http://www.w3.org/2000/svg">
<g opacity="0.8" clip-path="url(#clip0_2234_8808)">
<path d="M5.3356 40.2644C5.3356 41.7838 4.19226 42.9234 2.6678 42.9234C1.14334 42.9234 0 41.7838 0 40.2644C0 38.745 1.14334 37.6055 2.6678 37.6055C4.19226 37.6055 5.3356 38.8716 5.3356 40.2644Z" fill="white"/>
<path d="M28.0753 40.2644C28.0753 41.7838 26.932 42.9234 25.4075 42.9234C23.8831 42.9234 22.7397 41.7838 22.7397 40.2644C22.7397 38.745 23.8831 37.6055 25.4075 37.6055C26.805 37.6055 28.0753 38.8716 28.0753 40.2644Z" fill="white"/>
<path d="M5.3356 59.1306C5.3356 60.6501 4.19226 61.7896 2.6678 61.7896C1.14334 61.7896 0 60.6501 0 59.1306C0 57.6112 1.14334 56.4717 2.6678 56.4717C4.19226 56.4717 5.3356 57.6112 5.3356 59.1306Z" fill="white"/>
<path d="M28.0753 59.1306C28.0753 60.6501 26.932 61.7896 25.4075 61.7896C23.8831 61.7896 22.7397 60.6501 22.7397 59.1306C22.7397 57.6112 23.8831 56.4717 25.4075 56.4717C26.805 56.4717 28.0753 57.6112 28.0753 59.1306Z" fill="white"/>
<path d="M5.3356 2.65896C5.3356 4.17837 4.19226 5.31793 2.6678 5.31793C1.14334 5.31793 0 4.17837 0 2.65896C0 1.13956 1.14334 0 2.6678 0C4.19226 0 5.3356 1.13956 5.3356 2.65896Z" fill="white"/>
<path d="M28.0753 2.65896C28.0753 4.17837 26.932 5.31793 25.4075 5.31793C23.8831 5.31793 22.7397 4.17837 22.7397 2.65896C22.7397 1.13956 23.8831 0 25.4075 0C26.805 0 28.0753 1.13956 28.0753 2.65896Z" fill="white"/>
<path d="M5.3356 21.5252C5.3356 23.0446 4.19226 24.1841 2.6678 24.1841C1.14334 24.1841 0 22.918 0 21.5252C0 20.0058 1.14334 18.8662 2.6678 18.8662C4.19226 18.8662 5.3356 20.0058 5.3356 21.5252Z" fill="white"/>
<path d="M28.0753 21.5252C28.0753 23.0446 26.932 24.1841 25.4075 24.1841C23.8831 24.1841 22.7397 23.0446 22.7397 21.5252C22.7397 20.0058 23.8831 18.8662 25.4075 18.8662C26.805 18.8662 28.0753 20.0058 28.0753 21.5252Z" fill="white"/>
<path d="M5.3356 77.8699C5.3356 79.3893 4.19226 80.5289 2.6678 80.5289C1.14334 80.5289 0 79.3893 0 77.8699C0 76.3505 1.14334 75.2109 2.6678 75.2109C4.19226 75.2109 5.3356 76.4771 5.3356 77.8699Z" fill="white"/>
<path d="M28.0753 77.8699C28.0753 79.3893 26.932 80.5289 25.4075 80.5289C23.8831 80.5289 22.7397 79.3893 22.7397 77.8699C22.7397 76.3505 23.8831 75.2109 25.4075 75.2109C26.805 75.2109 28.0753 76.4771 28.0753 77.8699Z" fill="white"/>
<path d="M5.3356 96.7361C5.3356 98.2555 4.19226 99.3951 2.6678 99.3951C1.14334 99.3951 0 98.2555 0 96.7361C0 95.2167 1.14334 94.0771 2.6678 94.0771C4.19226 94.0771 5.3356 95.2167 5.3356 96.7361Z" fill="white"/>
<path d="M28.0753 96.7361C28.0753 98.2555 26.932 99.3951 25.4075 99.3951C23.8831 99.3951 22.7397 98.2555 22.7397 96.7361C22.7397 95.2167 23.8831 94.0771 25.4075 94.0771C26.805 94.0771 28.0753 95.2167 28.0753 96.7361Z" fill="white"/>
<path d="M5.3356 115.601C5.3356 117.121 4.19226 118.26 2.6678 118.26C1.14334 118.26 0 117.121 0 115.601C0 114.082 1.14334 112.942 2.6678 112.942C4.19226 112.942 5.3356 114.082 5.3356 115.601Z" fill="white"/>
<path d="M28.0753 115.601C28.0753 117.121 26.932 118.26 25.4075 118.26C23.8831 118.26 22.7397 117.121 22.7397 115.601C22.7397 114.082 23.8831 112.942 25.4075 112.942C26.805 112.942 28.0753 114.082 28.0753 115.601Z" fill="white"/>
<path d="M5.3356 134.341C5.3356 135.86 4.19226 137 2.6678 137C1.14334 137 0 135.86 0 134.341C0 132.821 1.14334 131.682 2.6678 131.682C4.19226 131.682 5.3356 132.948 5.3356 134.341Z" fill="white"/>
<path d="M28.0753 134.341C28.0753 135.86 26.932 137 25.4075 137C23.8831 137 22.7397 135.86 22.7397 134.341C22.7397 132.821 23.8831 131.682 25.4075 131.682C26.805 131.682 28.0753 132.948 28.0753 134.341Z" fill="white"/>
</g>
<defs>
<clipPath id="clip0_2234_8808">
<rect width="187" height="137" fill="white"/>
</clipPath>
</defs>
</svg>
