<svg width="1845" height="1558" viewBox="0 0 1845 1558" fill="none" xmlns="http://www.w3.org/2000/svg">
<g opacity="0.4" clip-path="url(#clip0_2504_549)">
<path d="M1842.09 871C1770.73 871 1713 928.727 1713 1000.09C1713 1071.27 1770.73 1129.18 1842.09 1129.18C1913.27 1129.18 1971.18 1071.45 1971.18 1000.09C1971 928.727 1913.27 871 1842.09 871ZM1842.09 1120.85C1775.33 1120.85 1721.32 1066.85 1721.32 1000.09C1721.32 933.331 1775.33 879.323 1842.09 879.323C1908.85 879.323 1962.85 933.331 1962.85 1000.09C1962.85 1066.67 1908.67 1120.85 1842.09 1120.85Z" fill="white"/>
<path d="M1842.09 898.801C1786.31 898.801 1740.98 944.132 1740.98 999.911C1740.98 1055.69 1786.31 1101.02 1842.09 1101.02C1897.87 1101.02 1943.2 1055.87 1943.2 1000.09C1943.2 944.132 1897.87 898.801 1842.09 898.801ZM1842.09 1085.62C1794.81 1085.62 1756.38 1047.19 1756.38 999.911C1756.38 952.632 1794.81 914.206 1842.09 914.206C1889.37 914.206 1927.79 952.632 1927.79 999.911C1927.79 1047.19 1889.37 1085.62 1842.09 1085.62Z" fill="white"/>
</g>
<path d="M72.5498 313C32.4434 313 0 345.443 0 385.55C0 425.557 32.4434 458.1 72.5498 458.1C112.557 458.1 145.1 425.656 145.1 385.55C145 345.443 112.557 313 72.5498 313ZM72.5498 453.422C35.0309 453.422 4.67742 423.069 4.67742 385.55C4.67742 348.031 35.0309 317.677 72.5498 317.677C110.069 317.677 140.422 348.031 140.422 385.55C140.422 422.969 109.969 453.422 72.5498 453.422Z" fill="white"/>
<g opacity="0.6">
<path d="M1831.3 11.9214L1831.3 0.000446321L1863 0.000442505L1863 31.6992L1851.17 31.6992L1851.17 11.9214L1831.3 11.9214Z" fill="white"/>
<path d="M1809.9 33.3257L1809.9 21.4951L1841.6 21.4951L1841.6 53.1035L1829.68 53.1035L1829.68 33.3257L1809.9 33.3257Z" fill="white"/>
<path d="M1788.49 54.8178L1788.49 42.8969L1820.1 42.8969L1820.1 74.5957L1808.27 74.5957L1808.27 54.8178L1788.49 54.8178Z" fill="white"/>
<path d="M1767 76.2221L1767 64.3012L1798.7 64.3012L1798.7 96L1786.78 96L1786.78 76.2221L1767 76.2221Z" fill="white"/>
</g>
<g opacity="0.6">
<path d="M78.8243 1497.72L90 1497.72L90 1468L60.2827 1468L60.2827 1479.09L78.8243 1479.09L78.8243 1497.72Z" fill="white"/>
<path d="M58.7598 1517.78L69.8509 1517.78L69.8509 1488.06L40.2183 1488.06L40.2183 1499.24L58.7598 1499.24L58.7598 1517.78Z" fill="white"/>
<path d="M38.606 1537.85L49.7818 1537.85L49.7818 1508.22L20.0645 1508.22L20.0645 1519.31L38.606 1519.31L38.606 1537.85Z" fill="white"/>
<path d="M18.5416 1558L29.7173 1558L29.7173 1528.28L0 1528.28L-5.86103e-07 1539.46L18.5416 1539.46L18.5416 1558Z" fill="white"/>
</g>
<defs>
<clipPath id="clip0_2504_549">
<rect width="258" height="258" fill="white" transform="translate(1713 871)"/>
</clipPath>
</defs>
</svg>
