<svg width="473" height="408" viewBox="0 0 473 408" fill="none" xmlns="http://www.w3.org/2000/svg">
<g filter="url(#filter0_d_2355_2781)">
<path d="M264.837 382.821C264.561 382.821 264.35 382.61 264.35 382.334C264.35 376.147 269.38 371.114 275.562 371.114H280.657C290.637 371.114 298.766 362.979 298.766 352.993V274.648C298.766 264.662 290.637 256.527 280.657 256.527H267.693C267.417 256.527 267.206 256.316 267.206 256.04C267.206 255.764 267.417 255.553 267.693 255.553H280.657C291.172 255.553 299.74 264.126 299.74 274.648V352.993C299.74 363.515 291.172 372.088 280.657 372.088H275.562C269.916 372.088 265.324 376.683 265.324 382.334C265.324 382.61 265.113 382.821 264.837 382.821Z" fill="#66B0F0"/>
<path d="M265.324 397.711C270.432 397.711 274.573 393.567 274.573 388.455C274.573 383.344 270.432 379.2 265.324 379.2C260.216 379.2 256.075 383.344 256.075 388.455C256.075 393.567 260.216 397.711 265.324 397.711Z" fill="white"/>
<path d="M265.324 398.198C259.953 398.198 255.588 393.83 255.588 388.455C255.588 383.081 259.953 378.713 265.324 378.713C270.694 378.713 275.059 383.081 275.059 388.455C275.059 393.83 270.694 398.198 265.324 398.198ZM265.324 379.687C260.488 379.687 256.561 383.617 256.561 388.455C256.561 393.294 260.488 397.224 265.324 397.224C270.159 397.224 274.086 393.294 274.086 388.455C274.086 383.617 270.159 379.687 265.324 379.687Z" fill="#66B0F0"/>
<path d="M263.507 256.04H342.837C346.407 256.04 349.295 253.15 349.295 249.578V244.138C349.295 240.566 346.407 237.676 342.837 237.676H263.507C259.402 237.676 256.075 241.004 256.075 245.112V248.587C256.075 252.711 259.402 256.04 263.507 256.04Z" fill="#D0F0E4"/>
<path d="M342.836 256.527H263.506C259.141 256.527 255.588 252.971 255.588 248.587V245.112C255.588 240.744 259.141 237.188 263.506 237.188H342.836C346.666 237.188 349.781 240.306 349.781 244.138V249.578C349.781 253.41 346.666 256.527 342.836 256.527ZM263.506 238.163C259.677 238.163 256.561 241.28 256.561 245.112V248.587C256.561 252.435 259.677 255.553 263.506 255.553H342.836C346.13 255.553 348.808 252.874 348.808 249.578V244.138C348.808 240.842 346.13 238.163 342.836 238.163H263.506Z" fill="#66B0F0"/>
<path d="M340.581 382.821C340.305 382.821 340.095 382.61 340.095 382.334C340.095 376.683 335.503 372.088 329.856 372.088H324.761C314.246 372.088 305.679 363.515 305.679 352.993V274.648C305.679 264.126 314.246 255.553 324.761 255.553H337.725C338.001 255.553 338.212 255.764 338.212 256.04C338.212 256.316 338.001 256.527 337.725 256.527H324.761C314.782 256.527 306.652 264.662 306.652 274.648V352.993C306.652 362.979 314.782 371.114 324.761 371.114H329.856C336.038 371.114 341.068 376.147 341.068 382.334C341.068 382.61 340.857 382.821 340.581 382.821Z" fill="#66B0F0"/>
<path d="M340.111 397.711C345.219 397.711 349.36 393.567 349.36 388.455C349.36 383.344 345.219 379.2 340.111 379.2C335.003 379.2 330.862 383.344 330.862 388.455C330.862 393.567 335.003 397.711 340.111 397.711Z" fill="white"/>
<path d="M340.111 398.198C334.74 398.198 330.375 393.83 330.375 388.455C330.375 383.081 334.74 378.713 340.111 378.713C345.482 378.713 349.847 383.081 349.847 388.455C349.847 393.83 345.482 398.198 340.111 398.198ZM340.111 379.687C335.275 379.687 331.349 383.617 331.349 388.455C331.349 393.294 335.275 397.224 340.111 397.224C344.946 397.224 348.873 393.294 348.873 388.455C348.873 383.617 344.946 379.687 340.111 379.687Z" fill="#66B0F0"/>
<path d="M193.344 362.703L199.186 374.67C201.149 378.697 202.171 383.097 202.171 387.546V396.623C202.171 398.198 200.857 399.481 199.234 399.481H132.512C130.743 399.481 129.315 398.084 129.315 396.363V393.554C129.315 392.417 129.948 391.378 130.97 390.826C137.899 387.108 160.275 375.482 164.607 363.06L193.344 362.703Z" fill="white"/>
<path d="M199.234 399.968H132.511C130.483 399.968 128.828 398.344 128.828 396.363V393.554C128.828 392.239 129.558 391.037 130.743 390.404L131.473 390.015C135.302 387.969 142.442 384.137 149.176 379.33C157.354 373.469 162.4 367.948 164.153 362.914L164.266 362.59L193.652 362.232L199.623 374.475C201.603 378.551 202.657 383.081 202.657 387.563V396.639C202.657 398.474 201.116 399.968 199.234 399.968ZM164.948 363.548C160.437 375.612 139.765 386.686 131.927 390.859L131.197 391.249C130.337 391.719 129.802 392.596 129.802 393.554V396.363C129.802 397.808 131.019 398.994 132.511 398.994H199.234C200.58 398.994 201.684 397.938 201.684 396.623V387.546C201.684 383.195 200.662 378.827 198.747 374.881L193.035 363.19L164.948 363.548Z" fill="#FFCF2D"/>
<path d="M201.765 382.708H196.541C191.705 382.708 187.21 385.16 184.679 389.17L182.456 392.71C181.126 394.821 178.773 396.104 176.241 396.104H129.348" fill="white"/>
<path d="M176.241 396.591H129.348V395.617H176.241C178.594 395.617 180.817 394.399 182.05 392.45L184.273 388.911C186.886 384.786 191.575 382.221 196.541 382.221H201.765V383.195H196.541C191.9 383.195 187.519 385.582 185.085 389.43L182.862 392.97C181.434 395.243 178.967 396.591 176.241 396.591Z" fill="#FFCF2D"/>
<path d="M197.725 371.682C192.711 371.845 186.058 371.325 178.026 369.864C172.752 368.906 167.738 367.444 163.374 365.804C163.877 364.895 164.282 363.986 164.607 363.077L193.343 362.703L197.725 371.682Z" fill="#FFCF2D"/>
<path d="M150.701 379.249C150.685 379.249 150.668 379.249 150.652 379.249C150.474 379.233 150.311 379.103 150.246 378.925L146.969 369.556C146.401 367.916 146.677 366.097 147.699 364.701C148.721 363.304 150.376 362.492 152.096 362.541C154.011 362.59 155.698 363.629 156.591 365.334C157.499 367.023 157.418 369.004 156.396 370.627L151.106 379.022C151.025 379.168 150.863 379.249 150.701 379.249ZM151.934 363.515C150.555 363.515 149.305 364.149 148.478 365.285C147.634 366.438 147.407 367.883 147.877 369.247L150.814 377.658L155.569 370.124C156.396 368.809 156.461 367.185 155.731 365.805C155.001 364.425 153.621 363.58 152.064 363.532C152.031 363.515 151.983 363.515 151.934 363.515Z" fill="#FE5244"/>
<path d="M142.344 380.955C141.306 380.955 140.284 380.565 139.521 379.834C138.548 378.909 138.093 377.561 138.288 376.23C138.515 374.752 139.472 373.567 140.868 373.031C142.263 372.495 143.789 372.739 144.941 373.697L150.717 378.454C150.863 378.568 150.928 378.763 150.879 378.941C150.831 379.12 150.685 379.266 150.506 379.298L143.188 380.873C142.912 380.922 142.637 380.955 142.344 380.955ZM142.344 373.713C141.971 373.713 141.582 373.778 141.209 373.924C140.154 374.33 139.424 375.239 139.245 376.36C139.083 377.383 139.424 378.389 140.186 379.104C140.949 379.818 141.971 380.11 142.977 379.899L149.305 378.535L144.308 374.411C143.756 373.956 143.058 373.713 142.344 373.713Z" fill="#FE5244"/>
<path d="M163.016 379.054H149.889C149.613 379.054 149.402 378.843 149.402 378.567C149.402 378.291 149.613 378.08 149.889 378.08H163.016C163.292 378.08 163.503 378.291 163.503 378.567C163.503 378.843 163.292 379.054 163.016 379.054Z" fill="#FE5244"/>
<path d="M159.171 382.724H146.06C145.784 382.724 145.573 382.513 145.573 382.237C145.573 381.961 145.784 381.75 146.06 381.75H159.171C159.447 381.75 159.658 381.961 159.658 382.237C159.658 382.513 159.447 382.724 159.171 382.724Z" fill="#FE5244"/>
<path d="M168.566 375.207H155.779C155.503 375.207 155.292 374.996 155.292 374.72C155.292 374.444 155.503 374.232 155.779 374.232H168.566C168.841 374.232 169.052 374.444 169.052 374.72C169.052 374.996 168.841 375.207 168.566 375.207Z" fill="#FE5244"/>
<path d="M271.344 195.345L241.245 206.744L212.297 357.605C211.129 360.365 195.779 364.327 181.451 364.327C166.36 364.327 154.142 360.122 154.142 357.15L171.926 218.581C174.246 200.298 189.791 186.577 208.224 186.577H270.776L271.068 195.329L271.344 195.345Z" fill="white"/>
<path d="M181.45 364.814C174.489 364.814 167.593 363.921 161.995 362.313C159.48 361.583 153.655 359.634 153.655 357.15V357.085L171.439 218.516C172.575 209.553 176.939 201.32 183.706 195.361C190.488 189.386 199.186 186.09 208.224 186.09H271.246L271.538 194.874L273.648 195.004L241.666 207.117L212.767 357.767L212.751 357.816C211.826 359.991 204.865 361.81 201.928 362.492C195.486 363.97 188.038 364.814 181.45 364.814ZM154.628 357.182C154.677 358.173 157.062 359.894 162.271 361.388C167.772 362.979 174.587 363.84 181.45 363.84C187.957 363.84 195.34 362.995 201.701 361.534C208.045 360.073 211.339 358.449 211.826 357.458L240.806 206.386L270.565 195.118L270.289 187.064H208.207C199.413 187.064 190.943 190.263 184.339 196.092C177.751 201.905 173.499 209.926 172.396 218.646L154.628 357.182Z" fill="#3FB1B5"/>
<path d="M180.622 364.781C180.605 364.781 180.573 364.781 180.557 364.781C180.297 364.749 180.102 364.505 180.135 364.229L197.692 227.43C198.876 218.109 203.63 210.137 211.435 204.373C219.646 198.3 230.826 195.085 243.742 195.085C244.018 195.085 244.228 195.296 244.228 195.572C244.228 195.848 244.018 196.059 243.742 196.059C231.037 196.059 220.051 199.209 212.019 205.152C204.426 210.77 199.817 218.515 198.665 227.56L181.108 364.359C181.076 364.603 180.865 364.781 180.622 364.781Z" fill="#3FB1B5"/>
<path d="M257.372 193.722L224.968 292.883L212.344 252.485C204.556 226.651 218.591 193.722 257.372 193.722Z" fill="#3FB1B5"/>
<path d="M292.908 362.102L304.575 391.183C306.197 395.209 303.001 399.512 298.392 399.512H254.452C252.277 399.512 250.509 397.872 250.509 395.826V392.904C250.509 391.572 250.931 390.29 251.742 389.185L259.449 380.758C263.944 375.855 266.41 369.603 266.41 363.157V363.076L292.908 362.102Z" fill="white"/>
<path d="M298.392 400H254.451C252.001 400 250.021 398.133 250.021 395.827V392.904C250.021 391.459 250.476 390.079 251.352 388.894L251.385 388.861L259.092 380.434C263.505 375.628 265.923 369.49 265.923 363.157V362.605L293.232 361.599L305.028 391.004C305.823 392.969 305.596 395.129 304.396 396.899C303.081 398.847 300.842 400 298.392 400ZM252.115 389.494C251.385 390.501 250.995 391.686 250.995 392.904V395.827C250.995 397.597 252.553 399.026 254.451 399.026H298.392C300.517 399.026 302.448 398.035 303.584 396.363C304.606 394.853 304.801 393.034 304.12 391.378L292.583 362.622L266.897 363.563C266.799 369.993 264.284 376.212 259.806 381.1L252.115 389.494Z" fill="#FFCF2D"/>
<path d="M253.365 387.465C255.799 386.328 258.476 385.728 261.202 385.728H275.303C277.801 385.728 280.268 386.231 282.54 387.205L287.699 389.397" fill="white"/>
<path d="M287.504 389.852L282.344 387.66C280.121 386.702 277.752 386.214 275.302 386.214H261.201C258.573 386.214 255.944 386.799 253.575 387.903L253.169 387.026C255.668 385.857 258.443 385.24 261.218 385.24H275.318C277.898 385.24 280.397 385.744 282.75 386.75L287.91 388.942L287.504 389.852Z" fill="#FFCF2D"/>
<path d="M293.459 363.433C292.55 367.021 280.494 369.879 265.76 369.879H265.517C266.117 367.687 266.426 365.43 266.426 363.141V363.06L292.923 362.102L293.459 363.433Z" fill="#FFCF2D"/>
<path d="M270.516 377.122C270.337 377.122 270.175 377.025 270.094 376.862C270.013 376.7 270.013 376.505 270.11 376.359L275.205 368.646C275.205 368.63 275.222 368.63 275.222 368.614C276.276 367.25 277.931 366.503 279.635 366.584C281.355 366.682 282.897 367.623 283.789 369.085C284.779 370.708 284.811 372.673 283.886 374.329C282.961 375.986 281.29 376.992 279.375 377.025L270.516 377.122ZM276 369.198L271.425 376.132L279.392 376.067C280.933 376.051 282.312 375.222 283.059 373.875C283.805 372.527 283.773 370.936 282.978 369.604C282.248 368.386 281.014 367.64 279.603 367.575C278.175 367.493 276.877 368.094 276 369.198Z" fill="#FE5244"/>
<path d="M263.1 377.171C261.786 377.171 260.537 376.521 259.774 375.433C259.011 374.329 258.833 372.933 259.303 371.682C259.806 370.302 260.991 369.328 262.435 369.101C263.895 368.857 265.323 369.409 266.248 370.562L270.889 376.326C271.003 376.472 271.035 376.667 270.954 376.846C270.873 377.008 270.71 377.122 270.516 377.122L263.117 377.171H263.1ZM263.1 370.026C262.938 370.026 262.76 370.042 262.581 370.075C261.478 370.253 260.585 370.984 260.196 372.04C259.839 373.014 259.969 374.037 260.553 374.897C261.137 375.742 262.062 376.213 263.068 376.213H263.084L269.477 376.164L265.469 371.179C264.902 370.432 264.025 370.026 263.1 370.026Z" fill="#FE5244"/>
<path d="M284.81 380.433H265.582C265.306 380.433 265.095 380.222 265.095 379.946C265.095 379.67 265.306 379.459 265.582 379.459H284.81C285.086 379.459 285.297 379.67 285.297 379.946C285.297 380.222 285.086 380.433 284.81 380.433Z" fill="#FE5244"/>
<path d="M303.098 354.374C303.098 357.897 290.376 364.506 277.103 364.506C265.177 364.506 255.295 362.135 253.429 359.131L220.62 254.108C211.517 223.956 234.071 193.559 265.534 193.559H270.921L270.158 166.476H337.53L344.166 194.03C349.521 216.275 332.678 238.228 309.815 238.228H279.569L303.098 354.374Z" fill="white"/>
<path d="M277.103 364.993C265.16 364.993 255.035 362.639 253.023 359.391L252.991 359.342L252.974 359.277L220.165 254.254C217.926 246.85 217.504 239.316 218.899 231.831C220.214 224.8 223.183 218.029 227.483 212.232C231.783 206.435 237.397 201.645 243.742 198.349C250.476 194.842 257.81 193.072 265.534 193.072H270.418L269.655 165.988H337.903L338 166.362L344.636 193.916C347.249 204.795 344.75 216.129 337.773 225.011C330.909 233.714 320.735 238.715 309.815 238.715H280.17L303.584 354.325V354.374C303.584 356.761 299.284 359.472 295.276 361.21C289.711 363.613 283.09 364.993 277.103 364.993ZM253.867 358.92C254.743 360.235 257.55 361.534 261.591 362.46C265.923 363.45 271.424 364.002 277.087 364.002C282.944 364.002 289.419 362.655 294.871 360.3C300.112 358.027 302.546 355.673 302.594 354.406L278.953 237.725H309.799C320.411 237.725 330.325 232.87 336.994 224.394C343.793 215.756 346.227 204.731 343.679 194.128L337.14 166.946H270.645L271.407 194.03H265.517C257.956 194.03 250.768 195.768 244.18 199.194C237.965 202.425 232.464 207.117 228.246 212.8C224.027 218.484 221.122 225.108 219.84 232.009C218.477 239.332 218.883 246.72 221.074 253.962L253.867 358.92Z" fill="#3FB1B5"/>
<path d="M282.182 364.489C281.971 364.489 281.777 364.359 281.712 364.148L250.703 264.873C247.88 256.706 246.517 249.318 246.663 242.969C246.809 236.718 248.415 231.408 251.433 227.17C254.257 223.208 258.33 220.172 263.538 218.142C268.698 216.145 274.994 215.122 282.28 215.122H309.394C317.701 215.122 324.452 208.367 324.452 200.054V166.54C324.452 166.264 324.662 166.053 324.938 166.053C325.214 166.053 325.425 166.264 325.425 166.54V200.054C325.425 208.903 318.237 216.096 309.394 216.096H282.28C275.124 216.096 268.942 217.087 263.895 219.035C258.865 220.984 254.938 223.906 252.229 227.706C249.324 231.781 247.783 236.912 247.637 242.969C247.49 249.204 248.837 256.478 251.628 264.548L282.636 363.84C282.718 364.099 282.572 364.375 282.312 364.457C282.28 364.489 282.231 364.489 282.182 364.489Z" fill="#3FB1B5"/>
<path d="M437.494 207.473H10.2509C8.56914 207.473 7.93502 204.875 9.35489 203.82L84.8975 160.531H366.252L438.266 204.405C439.451 205.33 438.9 207.473 437.494 207.473Z" fill="white"/>
<path d="M437.494 207.961H10.2508C9.29958 207.961 8.51383 207.263 8.23812 206.175C7.9762 205.087 8.32083 203.999 9.13416 203.398C9.14794 203.382 9.16173 203.382 9.17551 203.366L84.7181 160.077C84.7732 160.045 84.8422 160.028 84.8973 160.028H366.252C366.321 160.028 366.39 160.045 366.445 160.077L438.459 203.95C438.473 203.95 438.486 203.966 438.5 203.983C439.189 204.519 439.493 205.477 439.258 206.418C439.01 207.36 438.321 207.961 437.494 207.961ZM9.5615 204.243C8.98253 204.681 8.91359 205.395 9.03766 205.899C9.16173 206.418 9.54772 206.97 10.2508 206.97H437.494C438.045 206.97 438.348 206.532 438.459 206.126C438.555 205.72 438.514 205.168 438.059 204.795L366.156 160.986H84.9938L9.5615 204.243Z" fill="#66B0F0"/>
<path d="M426.094 202.651H21.1141C19.2393 202.651 18.5225 199.745 20.1215 198.559L85.3115 161.019H365.605L427.128 198.592C428.672 199.793 427.955 202.651 426.094 202.651Z" fill="#D0F0E4"/>
<path d="M4.40658 398.197C4.37901 398.197 4.36522 398.197 4.33765 398.197C4.11709 398.148 3.96545 397.904 4.00681 397.628L32.0595 207.392C32.1009 207.132 32.3077 206.953 32.542 207.002C32.7626 207.051 32.9142 207.294 32.8729 207.57L4.82013 397.791C4.77878 398.034 4.59957 398.197 4.40658 398.197Z" fill="#66B0F0"/>
<path d="M75.1401 398.197C74.9471 398.197 74.7679 398.035 74.7265 397.791L46.6738 207.555C46.6324 207.295 46.7841 207.035 47.0046 206.987C47.2252 206.938 47.4458 207.116 47.4871 207.376L75.5398 397.613C75.5812 397.872 75.4296 398.132 75.209 398.181C75.1814 398.197 75.1676 398.197 75.1401 398.197Z" fill="#66B0F0"/>
<path d="M371.464 398.196C371.437 398.196 371.423 398.196 371.395 398.196C371.175 398.147 371.023 397.903 371.064 397.627L399.117 207.391C399.159 207.131 399.365 206.952 399.6 207.001C399.82 207.05 399.972 207.293 399.93 207.569L371.878 397.806C371.836 398.033 371.657 398.196 371.464 398.196Z" fill="#66B0F0"/>
<path d="M442.195 398.197C442.002 398.197 441.823 398.035 441.781 397.791L413.728 207.555C413.687 207.295 413.839 207.035 414.059 206.987C414.28 206.938 414.5 207.116 414.542 207.376L442.595 397.613C442.636 397.872 442.484 398.132 442.264 398.181C442.236 398.197 442.222 398.197 442.195 398.197Z" fill="#66B0F0"/>
<path d="M379.196 333.963H411.356C412.362 330.359 415.656 327.712 419.583 327.712H387.422C383.496 327.712 380.202 330.359 379.196 333.963Z" fill="#3FB1B5"/>
<path d="M387.698 328.231C392.404 328.231 396.233 332.063 396.233 336.772V345.313H428.394V336.772C428.394 332.047 424.564 328.231 419.859 328.231H387.698Z" fill="white"/>
<path d="M428.88 345.8H395.746V336.772C395.746 332.339 392.144 328.718 387.698 328.718V327.744H419.859C424.84 327.744 428.88 331.787 428.88 336.772V345.8ZM396.72 344.826H427.907V336.772C427.907 332.339 424.288 328.718 419.859 328.718H391.771C394.708 330.212 396.72 333.265 396.72 336.772V344.826Z" fill="#3FB1B5"/>
<path d="M444.848 333.298H415.495L417.28 341.449H446.633L444.848 333.298Z" fill="white"/>
<path d="M447.232 341.936H416.889L414.894 332.811H445.237L447.232 341.936ZM417.668 340.962H446.032L444.458 333.785H416.094L417.668 340.962Z" fill="#FFCF2D"/>
<path d="M459.921 397.695H391.463C396.963 397.695 401.052 392.596 399.852 387.222L390.457 344.989C390.002 342.91 388.152 341.433 386.027 341.433H454.485C456.611 341.433 458.445 342.91 458.915 344.989L468.31 387.222C469.511 392.596 465.422 397.695 459.921 397.695Z" fill="white"/>
<path d="M459.921 398.182H391.463V397.208C393.945 397.208 396.249 396.104 397.791 394.171C399.332 392.239 399.916 389.755 399.381 387.335L389.986 345.102C389.58 343.267 387.925 341.92 386.027 341.92V340.945H454.485C456.854 340.945 458.867 342.569 459.386 344.875L468.781 387.108C469.381 389.82 468.732 392.596 467.012 394.772C465.276 396.948 462.696 398.182 459.921 398.182ZM395.568 397.208H459.921C462.404 397.208 464.708 396.104 466.249 394.171C467.791 392.239 468.375 389.755 467.84 387.335L458.445 345.102C458.023 343.235 456.4 341.92 454.485 341.92H388.996C389.954 342.618 390.668 343.673 390.943 344.891L400.338 387.124C400.939 389.836 400.29 392.612 398.57 394.788C397.726 395.811 396.704 396.623 395.568 397.208Z" fill="#FFCF2D"/>
<path d="M431.315 375.32H428.443C423.039 375.32 417.733 373.452 413.515 370.075C409.296 366.698 406.326 361.924 405.142 356.631L401.945 342.277L403.535 341.92L406.732 356.273C407.835 361.193 410.594 365.642 414.537 368.809C418.464 371.959 423.413 373.696 428.459 373.696H431.331C435.371 373.696 439.152 371.877 441.683 368.711C444.215 365.545 445.172 361.469 444.28 357.507L440.888 342.261L442.478 341.903L445.87 357.15C446.859 361.583 445.789 366.162 442.949 369.718C440.093 373.29 435.858 375.32 431.315 375.32Z" fill="#D0F0E4"/>
<path d="M434.722 375.158H431.85C426.447 375.158 421.141 373.29 416.922 369.913C412.704 366.536 409.734 361.762 408.55 356.468L405.353 342.115C405.256 341.676 405.532 341.238 405.97 341.14C406.408 341.043 406.846 341.319 406.943 341.757L410.14 356.111C411.243 361.031 414.002 365.48 417.945 368.646C421.871 371.796 426.82 373.534 431.867 373.534H434.739C438.779 373.534 442.56 371.715 445.091 368.549C447.622 365.383 448.58 361.307 447.687 357.345L444.296 342.098C444.199 341.66 444.474 341.221 444.913 341.124C445.351 341.027 445.789 341.303 445.886 341.741L449.277 356.988C450.267 361.421 449.196 366 446.357 369.556C443.501 373.128 439.266 375.158 434.722 375.158Z" fill="#FFCF2D"/>
<path d="M391.463 397.695H380.169C374.669 397.695 370.58 392.596 371.78 387.222L381.175 344.989C381.63 342.91 383.479 341.433 385.605 341.433H386.059C388.185 341.433 390.019 342.91 390.489 344.989L399.884 387.222C401.052 392.596 396.963 397.695 391.463 397.695Z" fill="#FFCF2D"/>
<path d="M391.463 398.182H380.17C377.395 398.182 374.815 396.948 373.079 394.772C371.342 392.612 370.693 389.82 371.31 387.108L380.705 344.875C381.208 342.602 383.269 340.945 385.605 340.945H386.06C388.429 340.945 390.441 342.569 390.96 344.875L400.355 387.108C400.939 389.82 400.29 392.612 398.538 394.772C396.818 396.948 394.221 398.182 391.463 398.182ZM385.605 341.92C383.723 341.92 382.052 343.251 381.646 345.086L372.251 387.319C371.716 389.738 372.284 392.223 373.841 394.155C375.383 396.087 377.703 397.191 380.17 397.191H391.463C393.929 397.191 396.233 396.087 397.791 394.155C399.349 392.223 399.933 389.722 399.414 387.303L390.019 345.07C389.597 343.202 387.974 341.887 386.06 341.887H385.605V341.92Z" fill="#FFCF2D"/>
<path d="M386.514 341.449H385.541V387.92H386.514V341.449Z" fill="white"/>
<path d="M396.688 396.72C396.574 396.72 396.477 396.688 396.38 396.623L385.995 388.423L375.561 396.574C375.351 396.737 375.042 396.704 374.88 396.493C374.718 396.282 374.75 395.973 374.961 395.811L386.011 387.205L396.98 395.892C397.191 396.055 397.223 396.363 397.061 396.574C396.98 396.655 396.834 396.72 396.688 396.72Z" fill="white"/>
<path d="M75.9609 326.396C75.9609 326.396 55.5971 300.222 58.8261 292.135C61.5845 285.235 67.8641 291.665 67.8641 291.665L75.9609 326.396Z" fill="#3FB1B5"/>
<path d="M90.9375 353.968C90.9375 353.968 112.145 330.586 111.658 322.175C111.172 313.764 103.497 317.71 103.497 317.71L90.9375 353.968Z" fill="#3FB1B5"/>
<path d="M113.07 374.54C113.07 381.587 110.085 388.017 105.184 392.921C101.241 396.85 95.8868 399.026 90.3212 399.026H73.0402C67.4746 399.026 62.1199 396.85 58.177 392.921C53.2766 388.033 50.291 381.587 50.291 374.54C50.291 364.505 56.3272 355.721 65.3814 350.85H97.9962C107.034 355.705 113.07 364.505 113.07 374.54Z" fill="#FFCF2D"/>
<path d="M81.688 356.338C90.9094 356.338 98.3848 354.354 98.3848 351.905C98.3848 349.457 90.9094 347.473 81.688 347.473C72.4666 347.473 64.9912 349.457 64.9912 351.905C64.9912 354.354 72.4666 356.338 81.688 356.338Z" fill="#3FB1B5"/>
<path d="M90.9365 353.967C88.2916 354.438 85.1113 354.714 81.6875 354.714C78.4423 354.714 75.408 354.471 72.8605 354.049C66.8243 347.635 52.1234 330.618 57.5592 322.207C64.3417 311.702 75.9759 326.413 75.9759 326.413C75.9759 326.413 62.2485 284.228 69.5179 274.859C76.7872 265.49 82.4826 282.134 82.4826 282.134C82.4826 282.134 86.1497 261.934 95.9991 263.867C105.394 265.718 90.8391 312.562 89.4761 316.881C90.1738 314.803 94.3927 303.339 102.619 304.395C110.408 305.385 95.2202 343.559 90.9365 353.967Z" fill="white"/>
<path d="M81.6881 355.201C78.5078 355.201 75.441 354.974 72.7799 354.536L72.6177 354.503L72.5041 354.39C66.0298 347.505 51.5723 330.569 57.1541 321.947C58.7929 319.414 60.8537 318.067 63.2714 317.953C67.8309 317.726 72.4879 321.915 74.8244 324.383C73.6886 320.681 71.3683 312.741 69.5347 304.265C66.1596 288.564 66.0136 278.578 69.129 274.567C70.9139 272.261 72.7962 271.255 74.7271 271.579C78.4429 272.196 81.1851 277.684 82.3372 280.445C83.1972 276.775 85.696 267.942 90.6126 264.581C92.3163 263.412 94.1499 263.022 96.097 263.396C97.0544 263.59 97.817 264.159 98.3849 265.133C100.527 268.738 99.894 278.09 96.5189 292.899C95.0099 299.54 93.225 306.002 91.8782 310.614C94.1337 306.977 97.6872 303.291 102.685 303.924C103.496 304.021 104.129 304.46 104.583 305.223C106.238 308.065 104.989 315.956 100.868 328.702C97.671 338.623 93.5495 348.918 91.3914 354.179L91.2941 354.422L91.0344 354.471C88.2435 354.942 85.0145 355.201 81.6881 355.201ZM73.1045 353.594C75.6682 354 78.6376 354.227 81.6881 354.227C84.8685 354.227 87.9352 353.984 90.5963 353.529C92.7869 348.219 96.7948 338.104 99.9426 328.377C104.957 312.855 104.778 307.48 103.74 305.694C103.464 305.207 103.074 304.931 102.571 304.866C94.7827 303.875 90.6937 314.819 89.9473 317.028L89.0224 316.719C89.6714 314.689 92.9978 303.94 95.5778 292.655C98.8555 278.285 99.537 268.933 97.5574 265.604C97.1355 264.889 96.6 264.467 95.9185 264.337C94.2472 264.013 92.6571 264.354 91.1805 265.36C85.3715 269.322 83.0025 282.085 82.9862 282.215L82.6455 284.05L82.0451 282.28C82.0127 282.182 78.8972 273.235 74.5973 272.521C73.0558 272.261 71.4818 273.154 69.9241 275.151C62.8982 284.212 76.3173 325.828 76.4633 326.25L77.3071 328.832L75.6195 326.705C75.5546 326.624 69.1615 318.619 63.3525 318.911C61.2593 319.008 59.4582 320.21 57.9979 322.467C55.7586 325.926 56.8945 331.349 61.3567 338.623C65.0563 344.696 70.2486 350.558 73.1045 353.594Z" fill="#3FB1B5"/>
<path d="M81.6889 355.201C81.4131 355.201 81.2021 354.974 81.2021 354.714C81.4131 327.647 85.2912 304.346 88.5202 289.57C92.0088 273.544 95.4975 263.785 95.53 263.688C95.6273 263.428 95.9031 263.298 96.1465 263.396C96.4062 263.493 96.536 263.769 96.4386 264.013C96.4062 264.11 92.9337 273.82 89.4613 289.781C86.2485 304.508 82.3867 327.744 82.1757 354.714C82.1757 354.99 81.9486 355.201 81.6889 355.201Z" fill="#3FB1B5"/>
<path d="M84.6103 314.982C84.5941 314.982 84.5616 314.982 84.5292 314.982C84.2695 314.949 84.0748 314.69 84.1235 314.43C85.7299 303.811 82.0141 282.426 81.9816 282.215C81.933 281.955 82.1115 281.695 82.3711 281.647C82.6307 281.598 82.8903 281.777 82.939 282.036C82.9714 282.247 86.7197 303.794 85.0809 314.576C85.0484 314.803 84.8537 314.982 84.6103 314.982Z" fill="#3FB1B5"/>
<path d="M84.999 355.104C84.9827 355.104 84.9827 355.104 84.9665 355.104C84.6907 355.088 84.4959 354.86 84.5122 354.584C85.4371 339.094 90.1914 326.185 94.0208 318.099C98.1747 309.331 102.183 304.135 102.215 304.086C102.377 303.875 102.686 303.843 102.897 304.005C103.107 304.167 103.14 304.476 102.978 304.687C102.945 304.736 98.986 309.867 94.8808 318.554C91.0838 326.559 86.3782 339.337 85.4695 354.665C85.4695 354.909 85.2586 355.104 84.999 355.104Z" fill="#3FB1B5"/>
<path d="M78.3456 355.12C78.086 355.12 77.8588 354.909 77.8588 354.633C77.6966 343.218 72.5366 334.596 68.2204 329.368C63.5473 323.701 58.8741 320.697 58.8417 320.681C58.6145 320.535 58.5496 320.243 58.6957 320.015C58.8417 319.788 59.1338 319.723 59.3609 319.869C59.5556 319.999 64.2126 322.97 68.9831 328.767C73.3804 334.109 78.6701 342.942 78.8324 354.633C78.8324 354.893 78.6214 355.12 78.3456 355.12Z" fill="#3FB1B5"/>
<path d="M65.7383 315.095C63.6452 315.095 61.9414 313.39 61.9414 311.296C61.9414 309.201 63.6452 307.496 65.7383 307.496C67.8315 307.496 69.5352 309.201 69.5352 311.296C69.5352 313.39 67.8315 315.095 65.7383 315.095ZM65.7383 308.47C64.1806 308.47 62.915 309.737 62.915 311.296C62.915 312.854 64.1806 314.121 65.7383 314.121C67.296 314.121 68.5617 312.854 68.5617 311.296C68.5617 309.737 67.296 308.47 65.7383 308.47Z" fill="#FFCF2D"/>
<path d="M58.0794 310.094C56.9761 310.094 56.0674 309.185 56.0674 308.081C56.0674 306.977 56.9761 306.067 58.0794 306.067C59.1828 306.067 60.0915 306.977 60.0915 308.081C60.0915 309.185 59.1828 310.094 58.0794 310.094ZM58.0794 307.042C57.5115 307.042 57.041 307.513 57.041 308.081C57.041 308.649 57.5115 309.12 58.0794 309.12C58.6474 309.12 59.1179 308.649 59.1179 308.081C59.1179 307.513 58.6474 307.042 58.0794 307.042Z" fill="#FFCF2D"/>
<path d="M60.2699 348.479C59.1665 348.479 58.2578 347.57 58.2578 346.466C58.2578 345.361 59.1665 344.452 60.2699 344.452C61.3733 344.452 62.2819 345.361 62.2819 346.466C62.2819 347.57 61.3733 348.479 60.2699 348.479ZM60.2699 345.426C59.702 345.426 59.2314 345.897 59.2314 346.466C59.2314 347.034 59.702 347.505 60.2699 347.505C60.8378 347.505 61.3084 347.034 61.3084 346.466C61.3084 345.897 60.8378 345.426 60.2699 345.426Z" fill="#FFCF2D"/>
<path d="M100.868 301.326C98.7746 301.326 97.0708 299.621 97.0708 297.526C97.0708 295.432 98.7746 293.727 100.868 293.727C102.961 293.727 104.665 295.432 104.665 297.526C104.665 299.621 102.961 301.326 100.868 301.326ZM100.868 294.701C99.31 294.701 98.0444 295.967 98.0444 297.526C98.0444 299.085 99.31 300.351 100.868 300.351C102.425 300.351 103.691 299.085 103.691 297.526C103.691 295.967 102.425 294.701 100.868 294.701Z" fill="#FFCF2D"/>
<path d="M101.842 289.083C100.739 289.083 99.8301 288.173 99.8301 287.069C99.8301 285.965 100.739 285.056 101.842 285.056C102.946 285.056 103.854 285.965 103.854 287.069C103.854 288.173 102.946 289.083 101.842 289.083ZM101.842 286.03C101.274 286.03 100.804 286.501 100.804 287.069C100.804 287.637 101.274 288.108 101.842 288.108C102.41 288.108 102.881 287.637 102.881 287.069C102.881 286.501 102.41 286.03 101.842 286.03Z" fill="#FFCF2D"/>
<path d="M107.375 301.327C106.272 301.327 105.363 300.417 105.363 299.313C105.363 298.209 106.272 297.3 107.375 297.3C108.479 297.3 109.387 298.209 109.387 299.313C109.387 300.417 108.479 301.327 107.375 301.327ZM107.375 298.274C106.807 298.274 106.337 298.745 106.337 299.313C106.337 299.882 106.807 300.353 107.375 300.353C107.943 300.353 108.414 299.882 108.414 299.313C108.414 298.745 107.943 298.274 107.375 298.274Z" fill="#FFCF2D"/>
<path d="M303.926 64.6182L336.589 73.841C350.884 77.7542 361.253 90.1595 362.551 104.935L367.532 160.061H194.674L210.641 98.1158C213.253 87.7888 221.074 79.6052 231.264 76.5364L269.412 64.6182H303.926Z" fill="#FE5244"/>
<path d="M204.394 155.303C205.264 155.303 205.968 154.598 205.968 153.728C205.968 152.858 205.264 152.153 204.394 152.153C203.525 152.153 202.82 152.858 202.82 153.728C202.82 154.598 203.525 155.303 204.394 155.303Z" fill="white"/>
<path d="M220.783 155.303C221.652 155.303 222.357 154.598 222.357 153.728C222.357 152.858 221.652 152.153 220.783 152.153C219.914 152.153 219.209 152.858 219.209 153.728C219.209 154.598 219.914 155.303 220.783 155.303Z" fill="white"/>
<path d="M237.172 155.303C238.041 155.303 238.745 154.598 238.745 153.728C238.745 152.858 238.041 152.153 237.172 152.153C236.302 152.153 235.598 152.858 235.598 153.728C235.598 154.598 236.302 155.303 237.172 155.303Z" fill="white"/>
<path d="M253.56 155.303C254.429 155.303 255.134 154.598 255.134 153.728C255.134 152.858 254.429 152.153 253.56 152.153C252.691 152.153 251.986 152.858 251.986 153.728C251.986 154.598 252.691 155.303 253.56 155.303Z" fill="white"/>
<path d="M269.948 155.303C270.818 155.303 271.522 154.598 271.522 153.728C271.522 152.858 270.818 152.153 269.948 152.153C269.079 152.153 268.375 152.858 268.375 153.728C268.375 154.598 269.079 155.303 269.948 155.303Z" fill="white"/>
<path d="M286.337 155.303C287.206 155.303 287.911 154.598 287.911 153.728C287.911 152.858 287.206 152.153 286.337 152.153C285.467 152.153 284.763 152.858 284.763 153.728C284.763 154.598 285.467 155.303 286.337 155.303Z" fill="white"/>
<path d="M302.725 155.303C303.594 155.303 304.299 154.598 304.299 153.728C304.299 152.858 303.594 152.153 302.725 152.153C301.856 152.153 301.151 152.858 301.151 153.728C301.151 154.598 301.856 155.303 302.725 155.303Z" fill="white"/>
<path d="M319.114 155.303C319.983 155.303 320.688 154.598 320.688 153.728C320.688 152.858 319.983 152.153 319.114 152.153C318.245 152.153 317.54 152.858 317.54 153.728C317.54 154.598 318.245 155.303 319.114 155.303Z" fill="white"/>
<path d="M335.503 155.303C336.372 155.303 337.077 154.598 337.077 153.728C337.077 152.858 336.372 152.153 335.503 152.153C334.633 152.153 333.929 152.858 333.929 153.728C333.929 154.598 334.633 155.303 335.503 155.303Z" fill="white"/>
<path d="M351.891 155.303C352.76 155.303 353.465 154.598 353.465 153.728C353.465 152.858 352.76 152.153 351.891 152.153C351.022 152.153 350.317 152.858 350.317 153.728C350.317 154.598 351.022 155.303 351.891 155.303Z" fill="white"/>
<path d="M212.832 144.262C213.701 144.262 214.406 143.557 214.406 142.687C214.406 141.817 213.701 141.112 212.832 141.112C211.962 141.112 211.258 141.817 211.258 142.687C211.258 143.557 211.962 144.262 212.832 144.262Z" fill="white"/>
<path d="M229.22 144.262C230.09 144.262 230.794 143.557 230.794 142.687C230.794 141.817 230.09 141.112 229.22 141.112C228.351 141.112 227.646 141.817 227.646 142.687C227.646 143.557 228.351 144.262 229.22 144.262Z" fill="white"/>
<path d="M245.609 144.262C246.478 144.262 247.183 143.557 247.183 142.687C247.183 141.817 246.478 141.112 245.609 141.112C244.74 141.112 244.035 141.817 244.035 142.687C244.035 143.557 244.74 144.262 245.609 144.262Z" fill="white"/>
<path d="M261.997 144.262C262.867 144.262 263.571 143.557 263.571 142.687C263.571 141.817 262.867 141.112 261.997 141.112C261.128 141.112 260.423 141.817 260.423 142.687C260.423 143.557 261.128 144.262 261.997 144.262Z" fill="white"/>
<path d="M278.386 144.262C279.255 144.262 279.96 143.557 279.96 142.687C279.96 141.817 279.255 141.112 278.386 141.112C277.516 141.112 276.812 141.817 276.812 142.687C276.812 143.557 277.516 144.262 278.386 144.262Z" fill="white"/>
<path d="M294.774 144.262C295.643 144.262 296.348 143.557 296.348 142.687C296.348 141.817 295.643 141.112 294.774 141.112C293.905 141.112 293.2 141.817 293.2 142.687C293.2 143.557 293.905 144.262 294.774 144.262Z" fill="white"/>
<path d="M311.163 144.262C312.032 144.262 312.737 143.557 312.737 142.687C312.737 141.817 312.032 141.112 311.163 141.112C310.294 141.112 309.589 141.817 309.589 142.687C309.589 143.557 310.294 144.262 311.163 144.262Z" fill="white"/>
<path d="M327.551 144.262C328.421 144.262 329.125 143.557 329.125 142.687C329.125 141.817 328.421 141.112 327.551 141.112C326.682 141.112 325.978 141.817 325.978 142.687C325.978 143.557 326.682 144.262 327.551 144.262Z" fill="white"/>
<path d="M343.94 144.262C344.809 144.262 345.514 143.557 345.514 142.687C345.514 141.817 344.809 141.112 343.94 141.112C343.071 141.112 342.366 141.817 342.366 142.687C342.366 143.557 343.071 144.262 343.94 144.262Z" fill="white"/>
<path d="M360.328 144.262C361.198 144.262 361.902 143.557 361.902 142.687C361.902 141.817 361.198 141.112 360.328 141.112C359.459 141.112 358.754 141.817 358.754 142.687C358.754 143.557 359.459 144.262 360.328 144.262Z" fill="white"/>
<path d="M204.394 132.896C205.264 132.896 205.968 132.191 205.968 131.321C205.968 130.451 205.264 129.746 204.394 129.746C203.525 129.746 202.82 130.451 202.82 131.321C202.82 132.191 203.525 132.896 204.394 132.896Z" fill="white"/>
<path d="M220.783 132.896C221.652 132.896 222.357 132.191 222.357 131.321C222.357 130.451 221.652 129.746 220.783 129.746C219.914 129.746 219.209 130.451 219.209 131.321C219.209 132.191 219.914 132.896 220.783 132.896Z" fill="white"/>
<path d="M237.172 132.896C238.041 132.896 238.745 132.191 238.745 131.321C238.745 130.451 238.041 129.746 237.172 129.746C236.302 129.746 235.598 130.451 235.598 131.321C235.598 132.191 236.302 132.896 237.172 132.896Z" fill="white"/>
<path d="M253.56 132.896C254.429 132.896 255.134 132.191 255.134 131.321C255.134 130.451 254.429 129.746 253.56 129.746C252.691 129.746 251.986 130.451 251.986 131.321C251.986 132.191 252.691 132.896 253.56 132.896Z" fill="white"/>
<path d="M269.948 132.896C270.818 132.896 271.522 132.191 271.522 131.321C271.522 130.451 270.818 129.746 269.948 129.746C269.079 129.746 268.375 130.451 268.375 131.321C268.375 132.191 269.079 132.896 269.948 132.896Z" fill="white"/>
<path d="M286.337 132.896C287.206 132.896 287.911 132.191 287.911 131.321C287.911 130.451 287.206 129.746 286.337 129.746C285.467 129.746 284.763 130.451 284.763 131.321C284.763 132.191 285.467 132.896 286.337 132.896Z" fill="white"/>
<path d="M302.725 132.896C303.594 132.896 304.299 132.191 304.299 131.321C304.299 130.451 303.594 129.746 302.725 129.746C301.856 129.746 301.151 130.451 301.151 131.321C301.151 132.191 301.856 132.896 302.725 132.896Z" fill="white"/>
<path d="M319.114 132.896C319.983 132.896 320.688 132.191 320.688 131.321C320.688 130.451 319.983 129.746 319.114 129.746C318.245 129.746 317.54 130.451 317.54 131.321C317.54 132.191 318.245 132.896 319.114 132.896Z" fill="white"/>
<path d="M335.503 132.896C336.372 132.896 337.077 132.191 337.077 131.321C337.077 130.451 336.372 129.746 335.503 129.746C334.633 129.746 333.929 130.451 333.929 131.321C333.929 132.191 334.633 132.896 335.503 132.896Z" fill="white"/>
<path d="M351.891 132.896C352.76 132.896 353.465 132.191 353.465 131.321C353.465 130.451 352.76 129.746 351.891 129.746C351.022 129.746 350.317 130.451 350.317 131.321C350.317 132.191 351.022 132.896 351.891 132.896Z" fill="white"/>
<path d="M212.832 122.341C213.701 122.341 214.406 121.636 214.406 120.766C214.406 119.897 213.701 119.191 212.832 119.191C211.962 119.191 211.258 119.897 211.258 120.766C211.258 121.636 211.962 122.341 212.832 122.341Z" fill="white"/>
<path d="M229.22 122.341C230.09 122.341 230.794 121.636 230.794 120.766C230.794 119.897 230.09 119.191 229.22 119.191C228.351 119.191 227.646 119.897 227.646 120.766C227.646 121.636 228.351 122.341 229.22 122.341Z" fill="white"/>
<path d="M245.609 122.341C246.478 122.341 247.183 121.636 247.183 120.766C247.183 119.897 246.478 119.191 245.609 119.191C244.74 119.191 244.035 119.897 244.035 120.766C244.035 121.636 244.74 122.341 245.609 122.341Z" fill="white"/>
<path d="M261.997 122.341C262.867 122.341 263.571 121.636 263.571 120.766C263.571 119.897 262.867 119.191 261.997 119.191C261.128 119.191 260.423 119.897 260.423 120.766C260.423 121.636 261.128 122.341 261.997 122.341Z" fill="white"/>
<path d="M278.386 122.341C279.255 122.341 279.96 121.636 279.96 120.766C279.96 119.897 279.255 119.191 278.386 119.191C277.516 119.191 276.812 119.897 276.812 120.766C276.812 121.636 277.516 122.341 278.386 122.341Z" fill="white"/>
<path d="M294.774 122.341C295.643 122.341 296.348 121.636 296.348 120.766C296.348 119.897 295.643 119.191 294.774 119.191C293.905 119.191 293.2 119.897 293.2 120.766C293.2 121.636 293.905 122.341 294.774 122.341Z" fill="white"/>
<path d="M311.163 122.341C312.032 122.341 312.737 121.636 312.737 120.766C312.737 119.897 312.032 119.191 311.163 119.191C310.294 119.191 309.589 119.897 309.589 120.766C309.589 121.636 310.294 122.341 311.163 122.341Z" fill="white"/>
<path d="M328.038 122.341C328.907 122.341 329.612 121.636 329.612 120.766C329.612 119.897 328.907 119.191 328.038 119.191C327.169 119.191 326.464 119.897 326.464 120.766C326.464 121.636 327.169 122.341 328.038 122.341Z" fill="white"/>
<path d="M343.94 122.341C344.809 122.341 345.514 121.636 345.514 120.766C345.514 119.897 344.809 119.191 343.94 119.191C343.071 119.191 342.366 119.897 342.366 120.766C342.366 121.636 343.071 122.341 343.94 122.341Z" fill="white"/>
<path d="M360.328 122.341C361.198 122.341 361.902 121.636 361.902 120.766C361.902 119.897 361.198 119.191 360.328 119.191C359.459 119.191 358.754 119.897 358.754 120.766C358.754 121.636 359.459 122.341 360.328 122.341Z" fill="white"/>
<path d="M220.783 111.463C221.652 111.463 222.357 110.757 222.357 109.888C222.357 109.018 221.652 108.312 220.783 108.312C219.914 108.312 219.209 109.018 219.209 109.888C219.209 110.757 219.914 111.463 220.783 111.463Z" fill="white"/>
<path d="M253.56 111.463C254.43 111.463 255.134 110.757 255.134 109.888C255.134 109.018 254.43 108.312 253.56 108.312C252.691 108.312 251.986 109.018 251.986 109.888C251.986 110.757 252.691 111.463 253.56 111.463Z" fill="white"/>
<path d="M269.948 111.463C270.818 111.463 271.522 110.757 271.522 109.888C271.522 109.018 270.818 108.312 269.948 108.312C269.079 108.312 268.375 109.018 268.375 109.888C268.375 110.757 269.079 111.463 269.948 111.463Z" fill="white"/>
<path d="M286.337 111.463C287.206 111.463 287.911 110.757 287.911 109.888C287.911 109.018 287.206 108.312 286.337 108.312C285.468 108.312 284.763 109.018 284.763 109.888C284.763 110.757 285.468 111.463 286.337 111.463Z" fill="white"/>
<path d="M302.725 111.463C303.595 111.463 304.299 110.757 304.299 109.888C304.299 109.018 303.595 108.312 302.725 108.312C301.856 108.312 301.151 109.018 301.151 109.888C301.151 110.757 301.856 111.463 302.725 111.463Z" fill="white"/>
<path d="M319.114 111.463C319.983 111.463 320.688 110.757 320.688 109.888C320.688 109.018 319.983 108.312 319.114 108.312C318.245 108.312 317.54 109.018 317.54 109.888C317.54 110.757 318.245 111.463 319.114 111.463Z" fill="white"/>
<path d="M335.503 111.463C336.372 111.463 337.077 110.757 337.077 109.888C337.077 109.018 336.372 108.312 335.503 108.312C334.633 108.312 333.929 109.018 333.929 109.888C333.929 110.757 334.633 111.463 335.503 111.463Z" fill="white"/>
<path d="M351.891 111.463C352.761 111.463 353.465 110.757 353.465 109.888C353.465 109.018 352.761 108.312 351.891 108.312C351.022 108.312 350.317 109.018 350.317 109.888C350.317 110.757 351.022 111.463 351.891 111.463Z" fill="white"/>
<path d="M212.832 100.747C213.701 100.747 214.406 100.042 214.406 99.1717C214.406 98.3018 213.701 97.5967 212.832 97.5967C211.962 97.5967 211.258 98.3018 211.258 99.1717C211.258 100.042 211.962 100.747 212.832 100.747Z" fill="white"/>
<path d="M229.22 100.747C230.09 100.747 230.794 100.042 230.794 99.1717C230.794 98.3018 230.09 97.5967 229.22 97.5967C228.351 97.5967 227.646 98.3018 227.646 99.1717C227.646 100.042 228.351 100.747 229.22 100.747Z" fill="white"/>
<path d="M245.609 100.747C246.478 100.747 247.183 100.042 247.183 99.1717C247.183 98.3018 246.478 97.5967 245.609 97.5967C244.74 97.5967 244.035 98.3018 244.035 99.1717C244.035 100.042 244.74 100.747 245.609 100.747Z" fill="white"/>
<path d="M261.997 100.747C262.867 100.747 263.571 100.042 263.571 99.1717C263.571 98.3018 262.867 97.5967 261.997 97.5967C261.128 97.5967 260.423 98.3018 260.423 99.1717C260.423 100.042 261.128 100.747 261.997 100.747Z" fill="white"/>
<path d="M278.386 100.747C279.255 100.747 279.96 100.042 279.96 99.1717C279.96 98.3018 279.255 97.5967 278.386 97.5967C277.517 97.5967 276.812 98.3018 276.812 99.1717C276.812 100.042 277.517 100.747 278.386 100.747Z" fill="white"/>
<path d="M294.774 100.747C295.643 100.747 296.348 100.042 296.348 99.1717C296.348 98.3018 295.643 97.5967 294.774 97.5967C293.905 97.5967 293.2 98.3018 293.2 99.1717C293.2 100.042 293.905 100.747 294.774 100.747Z" fill="white"/>
<path d="M311.163 100.747C312.032 100.747 312.737 100.042 312.737 99.1717C312.737 98.3018 312.032 97.5967 311.163 97.5967C310.294 97.5967 309.589 98.3018 309.589 99.1717C309.589 100.042 310.294 100.747 311.163 100.747Z" fill="white"/>
<path d="M327.551 100.747C328.421 100.747 329.125 100.042 329.125 99.1717C329.125 98.3018 328.421 97.5967 327.551 97.5967C326.682 97.5967 325.978 98.3018 325.978 99.1717C325.978 100.042 326.682 100.747 327.551 100.747Z" fill="white"/>
<path d="M343.94 100.747C344.809 100.747 345.514 100.042 345.514 99.1717C345.514 98.3018 344.809 97.5967 343.94 97.5967C343.071 97.5967 342.366 98.3018 342.366 99.1717C342.366 100.042 343.071 100.747 343.94 100.747Z" fill="white"/>
<path d="M359.517 100.747C360.386 100.747 361.091 100.042 361.091 99.1717C361.091 98.3018 360.386 97.5967 359.517 97.5967C358.648 97.5967 357.943 98.3018 357.943 99.1717C357.943 100.042 358.648 100.747 359.517 100.747Z" fill="white"/>
<path d="M220.783 90.192C221.652 90.192 222.357 89.4869 222.357 88.617C222.357 87.7471 221.652 87.042 220.783 87.042C219.914 87.042 219.209 87.7471 219.209 88.617C219.209 89.4869 219.914 90.192 220.783 90.192Z" fill="white"/>
<path d="M237.172 90.192C238.041 90.192 238.745 89.4869 238.745 88.617C238.745 87.7471 238.041 87.042 237.172 87.042C236.302 87.042 235.598 87.7471 235.598 88.617C235.598 89.4869 236.302 90.192 237.172 90.192Z" fill="white"/>
<path d="M253.56 90.192C254.43 90.192 255.134 89.4869 255.134 88.617C255.134 87.7471 254.43 87.042 253.56 87.042C252.691 87.042 251.986 87.7471 251.986 88.617C251.986 89.4869 252.691 90.192 253.56 90.192Z" fill="white"/>
<path d="M269.948 90.192C270.818 90.192 271.522 89.4869 271.522 88.617C271.522 87.7471 270.818 87.042 269.948 87.042C269.079 87.042 268.375 87.7471 268.375 88.617C268.375 89.4869 269.079 90.192 269.948 90.192Z" fill="white"/>
<path d="M286.337 90.192C287.206 90.192 287.911 89.4869 287.911 88.617C287.911 87.7471 287.206 87.042 286.337 87.042C285.468 87.042 284.763 87.7471 284.763 88.617C284.763 89.4869 285.468 90.192 286.337 90.192Z" fill="white"/>
<path d="M302.725 90.192C303.595 90.192 304.299 89.4869 304.299 88.617C304.299 87.7471 303.595 87.042 302.725 87.042C301.856 87.042 301.151 87.7471 301.151 88.617C301.151 89.4869 301.856 90.192 302.725 90.192Z" fill="white"/>
<path d="M319.114 90.192C319.983 90.192 320.688 89.4869 320.688 88.617C320.688 87.7471 319.983 87.042 319.114 87.042C318.245 87.042 317.54 87.7471 317.54 88.617C317.54 89.4869 318.245 90.192 319.114 90.192Z" fill="white"/>
<path d="M335.503 90.192C336.372 90.192 337.077 89.4869 337.077 88.617C337.077 87.7471 336.372 87.042 335.503 87.042C334.633 87.042 333.929 87.7471 333.929 88.617C333.929 89.4869 334.633 90.192 335.503 90.192Z" fill="white"/>
<path d="M351.891 90.192C352.761 90.192 353.465 89.4869 353.465 88.617C353.465 87.7471 352.761 87.042 351.891 87.042C351.022 87.042 350.317 87.7471 350.317 88.617C350.317 89.4869 351.022 90.192 351.891 90.192Z" fill="white"/>
<path d="M269.948 70.3825C270.818 70.3825 271.522 69.6773 271.522 68.8074C271.522 67.9376 270.818 67.2324 269.948 67.2324C269.079 67.2324 268.375 67.9376 268.375 68.8074C268.375 69.6773 269.079 70.3825 269.948 70.3825Z" fill="white"/>
<path d="M286.337 70.3825C287.206 70.3825 287.911 69.6773 287.911 68.8074C287.911 67.9376 287.206 67.2324 286.337 67.2324C285.468 67.2324 284.763 67.9376 284.763 68.8074C284.763 69.6773 285.468 70.3825 286.337 70.3825Z" fill="white"/>
<path d="M302.726 70.3825C303.595 70.3825 304.3 69.6773 304.3 68.8074C304.3 67.9376 303.595 67.2324 302.726 67.2324C301.857 67.2324 301.152 67.9376 301.152 68.8074C301.152 69.6773 301.857 70.3825 302.726 70.3825Z" fill="white"/>
<path d="M320.607 69.3274C320.396 69.9444 319.812 70.3828 319.114 70.3828C318.254 70.3828 317.54 69.6846 317.54 68.8078C317.54 68.6941 317.556 68.5805 317.572 68.4668L320.607 69.3274Z" fill="white"/>
<path d="M229.221 80.2877C230.09 80.2877 230.795 79.5826 230.795 78.7127C230.795 77.8429 230.09 77.1377 229.221 77.1377C228.352 77.1377 227.647 77.8429 227.647 78.7127C227.647 79.5826 228.352 80.2877 229.221 80.2877Z" fill="white"/>
<path d="M245.609 80.2877C246.478 80.2877 247.183 79.5826 247.183 78.7127C247.183 77.8429 246.478 77.1377 245.609 77.1377C244.74 77.1377 244.035 77.8429 244.035 78.7127C244.035 79.5826 244.74 80.2877 245.609 80.2877Z" fill="white"/>
<path d="M260.44 78.193C261.309 78.193 262.014 77.4878 262.014 76.618C262.014 75.7481 261.309 75.043 260.44 75.043C259.571 75.043 258.866 75.7481 258.866 76.618C258.866 77.4878 259.571 78.193 260.44 78.193Z" fill="white"/>
<path d="M278.386 80.2877C279.256 80.2877 279.96 79.5826 279.96 78.7127C279.96 77.8429 279.256 77.1377 278.386 77.1377C277.517 77.1377 276.812 77.8429 276.812 78.7127C276.812 79.5826 277.517 80.2877 278.386 80.2877Z" fill="white"/>
<path d="M294.775 80.2877C295.644 80.2877 296.349 79.5826 296.349 78.7127C296.349 77.8429 295.644 77.1377 294.775 77.1377C293.906 77.1377 293.201 77.8429 293.201 78.7127C293.201 79.5826 293.906 80.2877 294.775 80.2877Z" fill="white"/>
<path d="M311.163 80.2877C312.033 80.2877 312.737 79.5826 312.737 78.7127C312.737 77.8429 312.033 77.1377 311.163 77.1377C310.294 77.1377 309.589 77.8429 309.589 78.7127C309.589 79.5826 310.294 80.2877 311.163 80.2877Z" fill="white"/>
<path d="M327.552 80.2877C328.421 80.2877 329.126 79.5826 329.126 78.7127C329.126 77.8429 328.421 77.1377 327.552 77.1377C326.683 77.1377 325.978 77.8429 325.978 78.7127C325.978 79.5826 326.683 80.2877 327.552 80.2877Z" fill="white"/>
<path d="M343.941 80.2877C344.81 80.2877 345.515 79.5826 345.515 78.7127C345.515 77.8429 344.81 77.1377 343.941 77.1377C343.071 77.1377 342.367 77.8429 342.367 78.7127C342.367 79.5826 343.071 80.2877 343.941 80.2877Z" fill="white"/>
<path d="M329.904 161.019C329.645 161.019 329.434 160.824 329.417 160.564L325.848 111.966C325.831 111.69 326.026 111.462 326.302 111.446C326.578 111.43 326.805 111.625 326.821 111.901L330.391 160.499C330.407 160.775 330.212 161.003 329.937 161.019C329.92 161.019 329.92 161.019 329.904 161.019Z" fill="white"/>
<path d="M245.446 161.019C245.171 161.019 244.96 160.808 244.96 160.532V146.081L241.828 144.246C235.922 140.787 233.001 133.968 234.526 127.294L239.702 104.692C239.767 104.432 240.027 104.269 240.286 104.318C240.546 104.383 240.708 104.643 240.66 104.903L235.484 127.505C234.039 133.756 236.798 140.138 242.331 143.385L245.949 145.512V160.516C245.933 160.808 245.722 161.019 245.446 161.019Z" fill="white"/>
<path d="M279.213 96.7031L268.114 64.5532C268.033 64.2934 268.163 64.0173 268.423 63.9361C268.682 63.855 268.958 63.9849 269.039 64.2447L279.554 94.7383L304.072 64.0985C304.234 63.8874 304.542 63.855 304.753 64.0173C304.964 64.1797 304.997 64.4882 304.834 64.6993L279.213 96.7031Z" fill="white"/>
<path d="M308.08 86.0187L297.062 73.2399C296.884 73.0288 296.916 72.7365 297.111 72.5579C297.322 72.3793 297.614 72.4118 297.792 72.6067L307.999 84.4437L318.627 69.2942C318.789 69.0669 319.081 69.0182 319.308 69.1806C319.535 69.3429 319.584 69.6352 319.422 69.8625L308.08 86.0187Z" fill="white"/>
<path d="M259.077 84.2005L251.58 70.0091C251.45 69.7655 251.548 69.4732 251.775 69.3433C252.018 69.2134 252.31 69.3109 252.44 69.5382L259.385 82.658L271.295 72.5421C271.506 72.3635 271.814 72.396 271.976 72.5908C272.155 72.8019 272.123 73.1104 271.928 73.2728L259.077 84.2005Z" fill="white"/>
<path d="M237.787 115.668C237.56 115.668 237.365 115.506 237.317 115.278L235.094 104.903C235.045 104.643 235.207 104.383 235.467 104.318C235.726 104.253 235.986 104.432 236.051 104.692L238.274 115.067C238.323 115.327 238.16 115.587 237.901 115.652C237.852 115.668 237.82 115.668 237.787 115.668Z" fill="white"/>
<path d="M281.112 202.652H236.635L216.969 171.915H261.445L281.112 202.652Z" fill="#FFCF2D"/>
<path d="M254.289 195.979H209.796L190.146 165.258H234.623L254.289 195.979Z" fill="white"/>
<path d="M254.289 196.465H209.797C209.635 196.465 209.472 196.384 209.391 196.238L189.741 165.517C189.644 165.371 189.644 165.176 189.725 165.014C189.806 164.851 189.968 164.754 190.147 164.754H234.623C234.785 164.754 234.947 164.835 235.029 164.981L254.695 195.702C254.792 195.848 254.792 196.043 254.711 196.206C254.63 196.368 254.468 196.465 254.289 196.465ZM210.056 195.491H253.397L234.363 165.744H191.039L210.056 195.491Z" fill="#3FB1B5"/>
<path d="M226.088 171.557C225.602 171.557 225.017 171.427 224.401 171.167L221.886 170.063C220.815 169.592 220.068 169.69 219.906 169.917L219.111 170.924C218.608 171.541 217.472 171.573 216.174 171.005L213.984 170.047C212.913 169.576 212.166 169.673 212.004 169.901L211.339 170.761C210.836 171.378 209.7 171.411 208.385 170.859L206.73 170.144C205.659 169.673 204.913 169.771 204.751 169.982L204.15 170.745C203.647 171.362 202.512 171.395 201.213 170.843L199.558 170.128C199.347 170.047 199.25 169.803 199.347 169.592C199.429 169.381 199.672 169.284 199.883 169.381L201.538 170.096C202.512 170.518 203.323 170.502 203.534 170.242L204.134 169.479C204.621 168.845 205.789 168.813 207.087 169.397L208.742 170.112C209.716 170.534 210.527 170.518 210.738 170.258L211.404 169.414C211.89 168.78 213.059 168.748 214.357 169.316L216.547 170.274C217.521 170.696 218.332 170.68 218.543 170.42L219.338 169.414C219.825 168.78 220.993 168.748 222.291 169.333L224.806 170.437C225.78 170.859 226.591 170.843 226.802 170.583L227.662 169.495C227.792 169.316 228.052 169.284 228.23 169.43C228.409 169.56 228.441 169.82 228.295 169.998L227.435 171.102C227.062 171.395 226.624 171.557 226.088 171.557Z" fill="#3FB1B5"/>
<path d="M231.167 178.052C230.68 178.052 230.096 177.922 229.479 177.662L226.964 176.558C225.893 176.087 225.147 176.185 224.984 176.412L224.189 177.419C223.686 178.036 222.55 178.068 221.252 177.5L219.062 176.542C217.991 176.071 217.244 176.169 217.082 176.396L216.417 177.256C215.914 177.873 214.778 177.906 213.464 177.354L211.809 176.639C210.738 176.169 209.991 176.266 209.829 176.477L209.229 177.24C208.726 177.857 207.59 177.89 206.292 177.338C206.081 177.256 205.984 177.013 206.081 176.802C206.162 176.591 206.405 176.493 206.616 176.591C207.59 177.013 208.401 176.997 208.612 176.737L209.212 175.974C209.699 175.341 210.868 175.308 212.166 175.893L213.821 176.607C214.794 177.029 215.606 177.013 215.817 176.753L216.482 175.909C216.969 175.276 218.137 175.243 219.435 175.811L221.626 176.769C222.599 177.192 223.41 177.175 223.621 176.916L224.416 175.909C224.903 175.276 226.072 175.243 227.37 175.828L229.885 176.932C230.858 177.354 231.67 177.338 231.881 177.078L232.741 175.99C232.87 175.811 233.13 175.779 233.308 175.925C233.487 176.055 233.519 176.315 233.373 176.493L232.513 177.597C232.14 177.89 231.702 178.052 231.167 178.052Z" fill="#3FB1B5"/>
<path d="M236.246 184.531C235.759 184.531 235.175 184.401 234.558 184.141L232.043 183.037C230.972 182.566 230.226 182.663 230.064 182.891L229.269 183.897C228.766 184.514 227.63 184.547 226.332 183.979L224.141 183.021C223.07 182.55 222.324 182.647 222.162 182.874L221.496 183.735C220.993 184.352 219.857 184.385 218.543 183.832L216.888 183.118C215.817 182.647 215.071 182.745 214.909 182.956L214.308 183.719C213.805 184.336 212.669 184.368 211.371 183.816L209.716 183.102C209.505 183.021 209.408 182.777 209.505 182.566C209.586 182.355 209.83 182.257 210.041 182.355L211.696 183.069C212.669 183.491 213.481 183.475 213.692 183.215L214.292 182.452C214.779 181.819 215.947 181.787 217.245 182.371L218.9 183.086C219.874 183.508 220.685 183.491 220.896 183.232L221.561 182.387C222.048 181.754 223.216 181.722 224.514 182.29L226.705 183.248C227.679 183.67 228.49 183.654 228.701 183.394L229.496 182.387C229.983 181.754 231.151 181.722 232.449 182.306L234.964 183.41C235.938 183.832 236.749 183.816 236.96 183.556L237.82 182.452C237.95 182.274 238.209 182.241 238.388 182.387C238.566 182.517 238.599 182.777 238.453 182.956L237.593 184.06C237.22 184.368 236.781 184.531 236.246 184.531Z" fill="#3FB1B5"/>
<path d="M241.325 191.026C240.838 191.026 240.254 190.896 239.637 190.636L237.122 189.532C236.051 189.061 235.305 189.158 235.142 189.386L234.347 190.393C233.844 191.01 232.709 191.042 231.41 190.474L229.22 189.516C228.149 189.045 227.403 189.142 227.24 189.37L226.575 190.23C226.072 190.847 224.936 190.88 223.622 190.328L221.967 189.613C220.896 189.142 220.149 189.24 219.987 189.451L219.387 190.214C218.884 190.831 217.748 190.863 216.45 190.311L214.795 189.597C214.584 189.516 214.486 189.272 214.584 189.061C214.665 188.85 214.908 188.753 215.119 188.85L216.774 189.564C217.797 190.003 218.559 189.97 218.77 189.711L219.371 188.947C219.857 188.314 221.026 188.282 222.324 188.866L223.979 189.581C224.952 190.003 225.764 189.987 225.975 189.727L226.64 188.882C227.127 188.249 228.295 188.217 229.593 188.785L231.784 189.743C232.757 190.165 233.569 190.149 233.779 189.889L234.575 188.882C235.061 188.249 236.23 188.217 237.528 188.801L240.043 189.905C241.049 190.344 241.828 190.311 242.039 190.052L242.899 188.964C243.028 188.785 243.288 188.753 243.467 188.899C243.645 189.029 243.678 189.288 243.531 189.467L242.672 190.571C242.298 190.863 241.86 191.026 241.325 191.026Z" fill="#3FB1B5"/>
<path d="M263.019 178.312H348.336C359.63 178.312 368.473 168.586 367.402 157.349C366.331 146.064 355.768 138.157 344.653 140.333L246.468 154.021C242.752 154.54 239.491 156.797 237.722 160.11L229.025 176.282C228.716 176.688 228.506 177.159 228.376 177.646L225.114 190.262H226.948C229.787 190.262 232.416 188.687 233.747 186.171L235.385 183.102L254.257 185.148C257.794 185.586 261.153 183.167 262.418 179.854L263.019 178.312Z" fill="#A0505A"/>
<path d="M235.564 183.035C235.499 183.035 235.418 183.019 235.353 182.986C235.11 182.873 235.012 182.581 235.126 182.337L240.821 170.532C240.935 170.289 241.227 170.191 241.47 170.305C241.714 170.419 241.811 170.711 241.697 170.955L236.002 182.759C235.921 182.938 235.742 183.035 235.564 183.035Z" fill="#73325A"/>
<path d="M243.157 183.783C243.092 183.783 243.011 183.767 242.946 183.734C242.703 183.621 242.606 183.329 242.719 183.085L248.415 171.28C248.528 171.037 248.82 170.939 249.064 171.053C249.307 171.167 249.404 171.459 249.291 171.703L243.595 183.507C243.514 183.686 243.336 183.783 243.157 183.783Z" fill="#73325A"/>
<path d="M250.589 184.709C250.524 184.709 250.443 184.693 250.378 184.66C250.135 184.547 250.038 184.254 250.151 184.011L255.83 172.206C255.944 171.963 256.236 171.865 256.479 171.979C256.723 172.093 256.82 172.385 256.707 172.628L251.027 184.433C250.946 184.612 250.768 184.709 250.589 184.709Z" fill="#73325A"/>
<path d="M263.019 178.799C262.97 178.799 262.922 178.782 262.857 178.766C262.597 178.685 262.467 178.409 262.548 178.149L265.145 170.404C265.226 170.144 265.502 170.014 265.761 170.095C266.021 170.177 266.151 170.453 266.069 170.712L263.473 178.458C263.408 178.669 263.23 178.799 263.019 178.799Z" fill="#73325A"/>
<path d="M284.016 9.02163C284.016 9.02163 295.18 2.00711 306.084 10.8564C316.371 19.2187 311.568 35.6995 307.804 32.9392C304.575 30.5848 329.742 22.5473 337.628 41.204C346.568 62.345 326.431 74.3444 303.471 63.8875H270.159L234.737 74.9452C234.737 74.9452 216.742 65.7873 226.526 47.9263C235.564 31.4454 257.162 37.3233 254.728 41.3989C251.304 47.1144 236.668 29.026 246.955 11.9444C257.827 -6.11155 282.523 0.6107 284.016 9.02163Z" fill="white"/>
<path d="M234.688 75.4648L234.51 75.3673C234.185 75.205 226.348 71.1294 223.849 63.0594C222.372 58.2694 223.119 53.0897 226.088 47.6665C231.589 37.648 241.146 36.4789 244.992 36.4465C245.251 36.4465 245.511 36.4465 245.77 36.4465C244.018 33.1503 242.98 29.2696 242.866 25.4538C242.704 20.5988 243.937 15.955 246.533 11.6683C249.454 6.81334 253.527 3.38727 258.605 1.51997C262.808 -0.0225723 267.676 -0.412264 272.284 0.448314C278.418 1.58493 283.237 4.73496 284.34 8.25846C285.379 7.70639 287.748 6.60226 290.896 6.11514C294.79 5.51436 300.631 5.77415 306.408 10.4505C309.994 13.3732 312.233 17.6924 312.687 22.6123C312.931 25.2265 312.655 27.5809 312.12 29.4157C313.564 29.0585 315.186 28.8149 316.858 28.7175C321.563 28.4577 333.068 29.1072 338.082 40.9767C339.964 45.4257 340.645 49.6149 340.11 53.4307C339.623 56.9867 338.033 60.153 335.518 62.6048C332.208 65.836 327.502 67.7358 321.888 68.1092C316.079 68.4989 309.686 67.2 303.374 64.3422H270.24L234.688 75.4648ZM245.219 37.4369C245.154 37.4369 245.089 37.4369 245.008 37.4369C241.325 37.4694 232.189 38.5898 226.948 48.1536C224.108 53.317 223.395 58.237 224.79 62.7834C226.948 69.8142 233.633 73.7761 234.785 74.4256L270.077 63.4004H303.585L303.682 63.4491C309.88 66.2744 316.16 67.5572 321.823 67.1837C327.194 66.8265 331.688 65.0079 334.836 61.9553C337.222 59.6334 338.682 56.7269 339.152 53.3495C339.655 49.7124 338.99 45.7017 337.189 41.4151C334.934 36.0892 331.088 32.517 325.733 30.7959C320.119 28.9935 314.797 29.8541 312.769 30.325C312.412 30.4062 312.071 30.4874 311.763 30.5848C311.454 31.3966 311.081 32.0624 310.708 32.5657C309.75 33.816 308.566 34.1245 307.544 33.3776C307.138 33.0853 306.976 32.6469 307.106 32.2085C307.365 31.3317 308.891 30.4387 311.016 29.7892C311.617 28.0031 311.99 25.535 311.73 22.7584C311.292 18.0983 309.183 14.0065 305.808 11.2624C301.394 7.69016 296.429 6.29375 291.074 7.12185C287.066 7.73887 284.34 9.44379 284.308 9.46003L283.691 9.84973L283.561 9.13528C282.961 5.75792 278.255 2.59164 272.138 1.45503C267.692 0.626927 263.019 1.00038 258.979 2.49421C254.111 4.28032 250.216 7.56026 247.409 12.2366C244.927 16.3771 243.726 20.8262 243.888 25.5025C244.002 29.2696 245.057 33.134 246.841 36.349C246.89 36.4302 246.923 36.5114 246.971 36.5764C250.866 36.8686 254.224 38.1676 255.182 39.8238C255.539 40.4408 255.539 41.1066 255.198 41.6911C254.679 42.5679 253.9 43.0226 252.926 43.0063C250.914 42.9739 248.399 40.8468 246.403 37.5181C245.981 37.4532 245.608 37.4369 245.219 37.4369ZM247.555 37.5668C249.275 40.1973 251.369 41.9672 252.894 41.9834C253.494 41.9834 253.965 41.7236 254.306 41.139C254.468 40.863 254.468 40.5707 254.289 40.2622C253.64 39.1419 251.028 37.9565 247.555 37.5668ZM307.998 32.4683C307.998 32.4683 308.014 32.5008 308.079 32.5495C308.647 32.9717 309.264 32.7606 309.897 31.9325C310.107 31.6727 310.302 31.3317 310.497 30.942C308.761 31.5753 307.998 32.241 307.998 32.4683Z" fill="#FFCF2D"/>
<path d="M291.204 33.0689C291.139 33.0689 291.058 33.0527 290.993 33.0202C290.879 32.9715 288.364 31.7537 286.027 29.2856C283.594 26.7039 282.328 23.7325 282.247 20.5662C281.565 21.784 280.543 23.3266 279.131 24.8853C276.324 27.9542 271.343 31.6076 263.522 31.6076C263.473 31.6076 263.408 31.6076 263.359 31.6076C260.552 31.5913 258.573 30.4223 257.761 28.3276C256.804 25.8109 257.81 22.3198 260.114 20.2252C260.309 20.0466 260.617 20.0628 260.796 20.2577C260.974 20.4525 260.958 20.7611 260.763 20.9397C258.735 22.7907 257.842 25.8109 258.67 27.9704C259.335 29.6916 260.958 30.6171 263.359 30.6333C263.408 30.6333 263.473 30.6333 263.522 30.6333C269.509 30.6333 274.523 28.4738 278.417 24.2358C281.338 21.0371 282.49 17.8059 282.506 17.7734C282.587 17.5298 282.847 17.3999 283.09 17.4649C283.334 17.5298 283.496 17.7734 283.447 18.0332C282.701 21.9464 283.804 25.5024 286.725 28.6199C288.932 30.9743 291.398 32.1597 291.415 32.1759C291.658 32.2896 291.755 32.5818 291.642 32.8254C291.561 32.9715 291.382 33.0689 291.204 33.0689Z" fill="#FFCF2D"/>
<path d="M303.747 64.5694L295.228 41.9346H271.019L269.12 64.5694L279.554 94.576L303.747 64.5694Z" fill="#A0505A"/>
<path d="M284.194 59.7794L271.424 71.0643L269.12 64.5694L271.019 41.9346H292.47V42.3567C292.454 49.1277 289.419 55.5252 284.194 59.7794Z" fill="#73325A"/>
<path d="M300.761 37.5342V38.4435C300.761 40.9115 298.749 42.925 296.283 42.925H291.415C290.506 49.8258 284.6 55.1679 277.46 55.1679C273.566 55.1679 270.045 53.5929 267.497 51.0436C264.95 48.4944 263.376 44.9709 263.376 41.0739V31.5913C278.353 31.705 282.653 19.3809 282.653 19.3809C281.663 28.6361 290.101 32.6143 291.382 33.1501V33.0527H296.283C298.749 33.0527 300.761 35.0661 300.761 37.5342Z" fill="#A0505A"/>
<path d="M285.751 31.9488C285.622 31.9488 285.492 31.9001 285.394 31.8027C283.22 29.4807 279.926 29.3833 279.894 29.3833C279.618 29.3833 279.407 29.156 279.423 28.88C279.423 28.6039 279.65 28.3928 279.926 28.4091C280.072 28.4091 283.642 28.5065 286.108 31.1207C286.287 31.3156 286.287 31.6241 286.092 31.8027C285.995 31.9001 285.865 31.9488 285.751 31.9488Z" fill="#73325A"/>
<path d="M279.18 40.1486C279.727 40.1486 280.17 39.3708 280.17 38.4112C280.17 37.4517 279.727 36.6738 279.18 36.6738C278.634 36.6738 278.19 37.4517 278.19 38.4112C278.19 39.3708 278.634 40.1486 279.18 40.1486Z" fill="#73325A"/>
<path d="M265.664 40.1486C266.21 40.1486 266.653 39.3708 266.653 38.4112C266.653 37.4517 266.21 36.6738 265.664 36.6738C265.117 36.6738 264.674 37.4517 264.674 38.4112C264.674 39.3708 265.117 40.1486 265.664 40.1486Z" fill="#73325A"/>
<path d="M273.404 47.6017C273.355 47.6017 273.306 47.6017 273.274 47.6017C272.219 47.5692 271.473 47.2282 271.44 47.212C271.197 47.0983 271.1 46.806 271.213 46.5625C271.327 46.3189 271.619 46.2215 271.862 46.3352C271.96 46.3839 274.264 47.4231 276.389 45.3609C276.584 45.1661 276.892 45.1823 277.071 45.3772C277.266 45.572 277.249 45.8805 277.055 46.0591C275.757 47.3256 274.377 47.6017 273.404 47.6017Z" fill="#73325A"/>
<path d="M292.665 39.7916C292.389 39.7916 292.178 39.5805 292.178 39.3045C292.178 36.9176 294.109 34.9854 296.494 34.9854C296.77 34.9854 296.981 35.1964 296.981 35.4725C296.981 35.7485 296.77 35.9596 296.494 35.9596C294.644 35.9596 293.151 37.4534 293.151 39.3045C293.151 39.5805 292.94 39.7916 292.665 39.7916Z" fill="#73325A"/>
<path d="M259.076 32.1104C258.962 32.1104 258.832 32.0617 258.735 31.9805C258.54 31.8019 258.524 31.4934 258.719 31.2985C261.185 28.6843 264.755 28.5869 264.901 28.5869C265.177 28.5869 265.388 28.798 265.404 29.0578C265.404 29.3338 265.193 29.5449 264.933 29.5612C264.901 29.5612 261.607 29.6586 259.433 31.9805C259.335 32.0617 259.206 32.1104 259.076 32.1104Z" fill="#73325A"/>
<path d="M265.129 45.1982C261.786 45.1982 259.076 42.0482 259.076 38.1675C259.076 34.2868 261.786 31.1367 265.129 31.1367C268.471 31.1367 271.181 34.2868 271.181 38.1675C271.181 42.0482 268.471 45.1982 265.129 45.1982ZM265.129 32.111C262.321 32.111 260.05 34.8226 260.05 38.1675C260.05 41.5124 262.321 44.224 265.129 44.224C267.936 44.224 270.207 41.5124 270.207 38.1675C270.207 34.8226 267.936 32.111 265.129 32.111Z" fill="#FE5244"/>
<path d="M280.073 45.1982C276.73 45.1982 274.021 42.0482 274.021 38.1675C274.021 34.2868 276.73 31.1367 280.073 31.1367C283.416 31.1367 286.125 34.2868 286.125 38.1675C286.125 42.0482 283.416 45.1982 280.073 45.1982ZM280.073 32.111C277.266 32.111 274.994 34.8226 274.994 38.1675C274.994 41.5124 277.266 44.224 280.073 44.224C282.88 44.224 285.152 41.5124 285.152 38.1675C285.152 34.8226 282.88 32.111 280.073 32.111Z" fill="#FE5244"/>
<path d="M274.248 38.5566C274.183 38.5079 272.512 37.355 271.003 38.5404L270.402 37.7772C272.074 36.4782 274.021 37.1927 274.816 37.761L274.248 38.5566Z" fill="#FE5244"/>
<path d="M174.703 181.591H81.426C78.9209 181.591 76.6814 180.072 75.7515 177.757L50.226 114.667C49.0114 111.649 51.2318 108.347 54.4771 108.347H147.754C150.259 108.347 152.499 109.865 153.429 112.181L178.954 175.27C180.188 178.288 177.967 181.591 174.703 181.591Z" fill="white"/>
<path fill-rule="evenodd" clip-rule="evenodd" d="M50.7529 114.454C50.753 114.454 50.7531 114.454 50.7531 114.454L76.2788 177.544C77.1221 179.644 79.1525 181.021 81.4249 181.021H174.702C177.563 181.021 179.506 178.128 178.426 175.486L152.9 112.394L152.899 112.393C152.056 110.293 150.026 108.916 147.753 108.916H54.4761C51.637 108.916 49.6884 111.808 50.7529 114.454ZM49.6968 114.88C48.3326 111.49 50.8248 107.777 54.4761 107.777H147.753C150.491 107.777 152.939 109.437 153.956 111.968L179.48 175.055C180.867 178.448 178.37 182.16 174.702 182.16H81.4249C78.6871 182.16 76.2387 180.5 75.2221 177.969L49.6968 114.88Z" fill="#FFCF2D"/>
<path d="M170.376 182.046H81.3876C79.0153 182.046 76.8708 180.603 75.9788 178.401L51.6299 118.216C50.4723 115.331 52.5789 112.199 55.6913 112.199H144.679C147.052 112.199 149.196 113.642 150.088 115.843L174.437 176.029C175.595 178.914 173.469 182.046 170.376 182.046Z" fill="#FFCF2D"/>
<path d="M115.738 154.676C113.119 154.676 110.652 153.652 108.792 151.792C107.274 150.273 106.438 148.261 106.438 146.136C106.438 143.991 107.274 141.979 108.792 140.479C110.025 139.246 111.676 138.562 113.422 138.562C115.168 138.562 116.819 139.246 118.053 140.479C120.16 142.586 120.16 146.003 118.053 148.109C116.307 149.856 113.479 149.856 111.733 148.109C111.43 147.806 111.43 147.331 111.733 147.028C112.037 146.724 112.511 146.724 112.815 147.028C113.973 148.185 115.833 148.185 116.99 147.028C118.509 145.509 118.509 143.061 116.99 141.542C116.041 140.593 114.77 140.062 113.422 140.062C112.075 140.062 110.803 140.593 109.855 141.542C108.621 142.776 107.957 144.389 107.957 146.136C107.957 147.863 108.64 149.495 109.855 150.729C111.43 152.304 113.498 153.158 115.719 153.158C117.939 153.158 120.027 152.304 121.583 150.729C121.887 150.425 122.361 150.425 122.665 150.729C122.968 151.032 122.968 151.507 122.665 151.811C120.824 153.652 118.357 154.676 115.738 154.676Z" fill="white"/>
<path d="M208.085 188.272H81.5393C80.078 188.272 78.9014 187.095 78.9014 185.634V184.362C78.9014 182.9 80.078 181.724 81.5393 181.724H208.085C209.546 181.724 210.723 182.9 210.723 184.362V185.634C210.704 187.095 209.527 188.272 208.085 188.272Z" fill="white"/>
<path fill-rule="evenodd" clip-rule="evenodd" d="M81.5378 182.292C80.391 182.292 79.4693 183.214 79.4693 184.361V185.633C79.4693 186.78 80.391 187.701 81.5378 187.701H208.084C209.206 187.701 210.135 186.784 210.152 185.629V184.361C210.152 183.214 209.23 182.292 208.084 182.292H81.5378ZM78.3306 184.361C78.3306 182.585 79.7621 181.153 81.5378 181.153H208.084C209.859 181.153 211.291 182.585 211.291 184.361V185.636L211.291 185.64C211.268 187.406 209.844 188.84 208.084 188.84H81.5378C79.7621 188.84 78.3306 187.409 78.3306 185.633V184.361Z" fill="#FFCF2D"/>
<path d="M63.0374 165.885L59.2424 192.771C59.0184 194.367 57.6612 195.54 56.0535 195.54H48.6348C47.0272 195.54 45.6699 194.354 45.4459 192.771L41.6509 165.885C41.6509 168.298 46.4342 170.249 52.3376 170.249C58.2541 170.249 63.0374 168.285 63.0374 165.885Z" fill="white"/>
<path d="M56.0558 195.938H48.637C46.8449 195.938 45.3032 194.606 45.0528 192.826L41.3369 166.467C41.2842 166.282 41.2578 166.084 41.2578 165.887C41.2578 165.676 41.4159 165.504 41.6268 165.491C41.8376 165.478 42.0221 165.623 42.0484 165.834L42.1143 166.295C42.6546 168.089 46.6209 169.856 52.3398 169.856C58.0719 169.856 62.0514 168.089 62.5784 166.295L62.6443 165.834C62.6707 165.623 62.8552 165.478 63.066 165.491C63.2768 165.504 63.435 165.676 63.435 165.887C63.435 166.084 63.4086 166.282 63.3559 166.467L59.6399 192.826C59.3896 194.633 57.8742 195.938 56.0558 195.938ZM42.3515 167.983L45.8435 192.721C46.0411 194.105 47.2402 195.147 48.637 195.147H56.0558C57.4789 195.147 58.6517 194.131 58.8493 192.721L62.3413 167.983C60.5623 169.579 56.7937 170.647 52.3398 170.647C47.8859 170.647 44.1173 169.566 42.3515 167.983Z" fill="#66B0F0"/>
<path d="M60.6546 168.761L57.2681 192.562C57.0177 194.342 55.476 195.674 53.6839 195.674H51.1407C49.3486 195.674 47.8068 194.342 47.5565 192.562L44.1699 168.827C44.4335 168.945 44.7234 169.051 45.0133 169.156L48.3339 192.456C48.5184 193.735 49.5462 194.724 50.8112 194.869C50.9166 194.883 51.0221 194.896 51.1407 194.896H53.6839C53.842 194.896 54.0001 194.883 54.1451 194.856C55.3442 194.658 56.3061 193.696 56.4774 192.456L59.7981 169.104C60.1143 168.998 60.3911 168.879 60.6546 168.761Z" fill="#66B0F0"/>
<path d="M57.1633 169.816L54.1458 194.857L54.1062 195.2C54.0799 195.398 53.9086 195.543 53.7109 195.543C53.6977 195.543 53.6845 195.543 53.6582 195.543C53.4342 195.516 53.2892 195.319 53.3156 195.108L53.3419 194.897L56.3463 169.961C56.6362 169.909 56.8998 169.856 57.1633 169.816Z" fill="#66B0F0"/>
<path d="M51.2996 195.542C51.2864 195.542 51.2732 195.542 51.2469 195.542C51.0492 195.542 50.8779 195.397 50.8516 195.199L50.812 194.869L47.7944 169.868C48.058 169.921 48.3347 169.96 48.6114 170L51.6158 194.896L51.6422 195.107C51.6686 195.317 51.5104 195.515 51.2996 195.542Z" fill="#66B0F0"/>
<path d="M63.4223 165.887C63.4223 166.995 62.3813 167.997 60.6683 168.775C60.4047 168.894 60.1148 169.012 59.8249 169.118C59.0343 169.395 58.1514 169.645 57.1763 169.83C56.9128 169.883 56.636 169.922 56.3593 169.975C55.2129 170.146 53.9611 170.252 52.6565 170.265C52.5511 170.265 52.4589 170.265 52.3535 170.265C52.2085 170.265 52.0636 170.265 51.9186 170.265C50.759 170.252 49.6522 170.159 48.6243 170.014C48.3476 169.975 48.0841 169.935 47.8074 169.883C46.7927 169.698 45.8571 169.461 45.027 169.17C44.7371 169.065 44.4472 168.959 44.1836 168.841C42.3784 168.063 41.2847 167.034 41.2847 165.9C41.2847 165.808 41.2978 165.716 41.311 165.623C41.68 163.342 46.4765 161.549 52.3535 161.549C58.2305 161.549 63.0401 163.355 63.3959 165.623C63.4091 165.702 63.4223 165.795 63.4223 165.887Z" fill="#66B0F0"/>
<path d="M52.814 194.805C52.814 194.831 52.814 194.871 52.8008 194.897C52.7613 195.068 52.6032 195.2 52.4187 195.2C52.2342 195.2 52.0761 195.068 52.0365 194.897C52.0234 194.871 52.0234 194.844 52.0234 194.818L51.8916 170.397C51.8916 170.344 51.9048 170.305 51.9179 170.252C52.0629 170.252 52.2079 170.252 52.3528 170.252C52.4582 170.252 52.5636 170.252 52.6559 170.252C52.6691 170.292 52.6822 170.331 52.6822 170.384L52.814 194.805Z" fill="#66B0F0"/>
<path d="M52.4192 169.447C50.0737 169.381 47.9258 169.025 46.1864 168.458L39.9668 142.362H45.9624L52.4192 169.447Z" fill="#FFCF2D"/>
<path d="M46.7399 145.658H44.2889C44.1044 145.658 43.9595 145.513 43.9595 145.329C43.9595 145.144 44.1044 144.999 44.2889 144.999H46.5818L46.7399 145.658Z" fill="white"/>
<path d="M47.3986 148.428H44.9476C44.7631 148.428 44.6182 148.283 44.6182 148.098C44.6182 147.914 44.7631 147.769 44.9476 147.769H47.2404L47.3986 148.428Z" fill="white"/>
<path d="M48.0578 151.196H45.6068C45.4223 151.196 45.2773 151.051 45.2773 150.867C45.2773 150.682 45.4223 150.537 45.6068 150.537H47.8996L48.0578 151.196Z" fill="white"/>
<path d="M48.7291 153.966H46.2782C46.0937 153.966 45.9487 153.821 45.9487 153.636C45.9487 153.452 46.0937 153.307 46.2782 153.307H48.571L48.7291 153.966Z" fill="white"/>
<path d="M49.3883 156.734H46.9373C46.7529 156.734 46.6079 156.589 46.6079 156.405C46.6079 156.22 46.7529 156.075 46.9373 156.075H49.2302L49.3883 156.734Z" fill="white"/>
<path d="M50.0476 159.504H47.7152C47.5307 159.504 47.3857 159.359 47.3857 159.174C47.3857 158.99 47.5307 158.845 47.7152 158.845H49.8894L50.0476 159.504Z" fill="white"/>
<path d="M50.7057 162.273H48.2415C48.0571 162.273 47.9121 162.128 47.9121 161.943C47.9121 161.758 48.0571 161.613 48.2415 161.613H50.5476L50.7057 162.273Z" fill="white"/>
<path d="M51.3659 165.042H48.9017C48.7172 165.042 48.5723 164.897 48.5723 164.712C48.5723 164.528 48.7172 164.383 48.9017 164.383H51.2077L51.3659 165.042Z" fill="white"/>
<path d="M52.0235 167.797C51.9971 167.811 51.9707 167.811 51.9312 167.811H49.4276C49.2431 167.811 49.0981 167.666 49.0981 167.481C49.0981 167.296 49.2431 167.151 49.4276 167.151H51.8653L52.0235 167.797Z" fill="white"/>
<path d="M97.42 198.72C97.4068 198.734 97.42 198.72 97.42 198.72L96.8665 200.738C96.8534 200.791 96.8138 200.817 96.7743 200.804L68.3116 192.299C68.272 192.286 68.2589 192.233 68.272 192.193L68.8123 190.189C68.8123 190.163 68.8387 190.149 68.8518 190.136C68.865 190.123 68.8914 190.123 68.9045 190.123L97.3673 198.628C97.3805 198.628 97.3936 198.654 97.4068 198.668C97.42 198.681 97.42 198.707 97.42 198.72Z" fill="#FE5244"/>
<path d="M69.234 190.242L68.6542 192.391C68.6146 192.536 68.496 192.629 68.3774 192.602L67.7317 192.404C67.6263 192.378 67.5604 192.22 67.6 192.075L68.1798 189.925C68.2193 189.78 68.3379 189.688 68.4565 189.714L69.1022 189.912C69.2076 189.939 69.2735 190.084 69.234 190.242Z" fill="#FFCF2D"/>
<path d="M66.6114 190.083L66.3479 191.086C66.2688 191.362 66.4401 191.653 66.73 191.745L67.6392 192.009L68.1795 189.991L67.2703 189.727C66.9804 189.648 66.6905 189.807 66.6114 190.083Z" fill="#FE5244"/>
<path d="M97.3386 198.707L98.1951 199.577L98.8539 200.25L97.9579 200.461L96.7983 200.725L97.3386 198.707Z" fill="white"/>
<path d="M98.9218 200.263C98.9086 200.316 98.8822 200.343 98.8559 200.343L96.8003 200.817C96.7739 200.817 96.7475 200.817 96.7344 200.791C96.7212 200.765 96.7212 200.738 96.7212 200.712L97.2615 198.707C97.2746 198.681 97.2878 198.655 97.3142 198.641C97.3405 198.628 97.3669 198.628 97.3801 198.655L98.8954 200.197C98.9218 200.197 98.935 200.224 98.9218 200.263ZM96.9057 200.606L98.6846 200.197L97.3801 198.866L96.9057 200.606Z" fill="#FE5244"/>
<path d="M98.1962 199.577L98.855 200.25L97.959 200.461L98.1962 199.577Z" fill="#F0E1D4"/>
<path d="M98.9219 200.263C98.9087 200.316 98.8823 200.342 98.856 200.342L97.9599 200.553C97.9336 200.553 97.9072 200.553 97.894 200.527C97.8809 200.501 97.8809 200.474 97.8809 200.448L98.118 199.578C98.1312 199.551 98.1444 199.525 98.1708 199.512C98.1971 199.498 98.2235 199.498 98.2366 199.525L98.8955 200.197C98.9219 200.197 98.935 200.224 98.9219 200.263Z" fill="#FE5244"/>
<path d="M57.2423 151.923C57.2423 152.002 57.2423 152.094 57.2292 152.173L55.0812 169.315C54.2247 169.408 53.3418 169.46 52.4194 169.46L53.4736 151.804C53.5395 150.815 54.3565 150.037 55.358 150.037C56.4121 150.037 57.2423 150.894 57.2423 151.923Z" fill="#FE5244"/>
</g>
<defs>
<filter id="filter0_d_2355_2781" x="0" y="0" width="473" height="408" filterUnits="userSpaceOnUse" color-interpolation-filters="sRGB">
<feFlood flood-opacity="0" result="BackgroundImageFix"/>
<feColorMatrix in="SourceAlpha" type="matrix" values="0 0 0 0 0 0 0 0 0 0 0 0 0 0 0 0 0 0 127 0" result="hardAlpha"/>
<feOffset dy="4"/>
<feGaussianBlur stdDeviation="2"/>
<feComposite in2="hardAlpha" operator="out"/>
<feColorMatrix type="matrix" values="0 0 0 0 0 0 0 0 0 0 0 0 0 0 0 0 0 0 0.25 0"/>
<feBlend mode="normal" in2="BackgroundImageFix" result="effect1_dropShadow_2355_2781"/>
<feBlend mode="normal" in="SourceGraphic" in2="effect1_dropShadow_2355_2781" result="shape"/>
</filter>
</defs>
</svg>
